<svg width="52" height="24" viewBox="0 0 52 24" fill="none" xmlns="http://www.w3.org/2000/svg">
<rect width="52" height="24" rx="5" fill="#5390F8"/>
<path d="M9.11861 17V6.81818H12.8473C13.5698 6.81818 14.1681 6.9375 14.642 7.17614C15.116 7.41146 15.4706 7.7313 15.706 8.13565C15.9413 8.53669 16.0589 8.98911 16.0589 9.4929C16.0589 9.91714 15.9811 10.2751 15.8253 10.5668C15.6695 10.8551 15.4607 11.0871 15.1989 11.2628C14.9403 11.4351 14.6553 11.5611 14.3438 11.6406V11.7401C14.6818 11.7566 15.0116 11.866 15.3331 12.0682C15.6579 12.267 15.9264 12.5504 16.1385 12.9183C16.3506 13.2862 16.4567 13.7337 16.4567 14.2607C16.4567 14.781 16.334 15.2483 16.0888 15.6626C15.8468 16.0736 15.4723 16.4001 14.9652 16.642C14.4581 16.8807 13.8101 17 13.0213 17H9.11861ZM10.6548 15.6825H12.8722C13.608 15.6825 14.1349 15.54 14.4531 15.255C14.7713 14.9699 14.9304 14.6136 14.9304 14.1861C14.9304 13.8646 14.8492 13.5696 14.6868 13.3011C14.5244 13.0327 14.2924 12.8189 13.9908 12.6598C13.6925 12.5007 13.3378 12.4212 12.9268 12.4212H10.6548V15.6825ZM10.6548 11.223H12.7131C13.0578 11.223 13.3677 11.1567 13.6428 11.0241C13.9212 10.8916 14.1416 10.706 14.304 10.4673C14.4697 10.2254 14.5526 9.94034 14.5526 9.61222C14.5526 9.19129 14.4051 8.8383 14.1101 8.55327C13.8151 8.26823 13.3627 8.12571 12.7528 8.12571H10.6548V11.223ZM20.2817 17.169C19.7978 17.169 19.3603 17.0795 18.9692 16.9006C18.5781 16.7183 18.2683 16.4548 18.0396 16.1101C17.8142 15.7654 17.7015 15.3428 17.7015 14.8423C17.7015 14.4115 17.7844 14.0568 17.9501 13.7784C18.1158 13.5 18.3395 13.2796 18.6212 13.1172C18.903 12.9548 19.2178 12.8321 19.5658 12.7493C19.9138 12.6664 20.2685 12.6035 20.6298 12.5604C21.0871 12.5073 21.4584 12.4643 21.7434 12.4311C22.0284 12.3946 22.2356 12.3366 22.3648 12.2571C22.4941 12.1776 22.5587 12.0483 22.5587 11.8693V11.8345C22.5587 11.4003 22.4361 11.0639 22.1908 10.8253C21.9489 10.5866 21.5876 10.4673 21.107 10.4673C20.6066 10.4673 20.2121 10.5784 19.9238 10.8004C19.6388 11.0192 19.4415 11.2628 19.3322 11.5312L17.9352 11.2131C18.1009 10.7491 18.3428 10.3745 18.661 10.0895C18.9825 9.80114 19.3521 9.59233 19.7697 9.46307C20.1873 9.33049 20.6264 9.2642 21.0871 9.2642C21.3921 9.2642 21.7152 9.30066 22.0566 9.37358C22.4013 9.44318 22.7228 9.57244 23.0211 9.76136C23.3227 9.95028 23.5696 10.2204 23.7619 10.5717C23.9541 10.9197 24.0502 11.3722 24.0502 11.929V17H22.5985V15.956H22.5388C22.4427 16.1482 22.2986 16.3371 22.1063 16.5227C21.9141 16.7083 21.6672 16.8625 21.3656 16.9851C21.0639 17.1077 20.7027 17.169 20.2817 17.169ZM20.6049 15.9759C21.0159 15.9759 21.3672 15.8946 21.6589 15.7322C21.9539 15.5698 22.1776 15.3577 22.33 15.0959C22.4858 14.8307 22.5637 14.5473 22.5637 14.2457V13.2614C22.5107 13.3144 22.4079 13.3641 22.2555 13.4105C22.1063 13.4536 21.9356 13.4917 21.7434 13.5249C21.5512 13.5547 21.3639 13.5829 21.1816 13.6094C20.9993 13.6326 20.8469 13.6525 20.7242 13.669C20.4359 13.7055 20.1724 13.7668 19.9337 13.853C19.6984 13.9392 19.5095 14.0634 19.367 14.2259C19.2278 14.3849 19.1582 14.5971 19.1582 14.8622C19.1582 15.2301 19.2941 15.5085 19.5658 15.6974C19.8376 15.883 20.184 15.9759 20.6049 15.9759ZM31.6524 11.228L30.3051 11.4666C30.2488 11.2943 30.1593 11.1302 30.0367 10.9744C29.9174 10.8187 29.755 10.6911 29.5495 10.5916C29.344 10.4922 29.0871 10.4425 28.7789 10.4425C28.3579 10.4425 28.0066 10.5369 27.7249 10.7259C27.4432 10.9115 27.3023 11.1518 27.3023 11.4467C27.3023 11.7019 27.3968 11.9074 27.5857 12.0632C27.7746 12.219 28.0795 12.3466 28.5005 12.446L29.7135 12.7244C30.4162 12.8868 30.9399 13.1371 31.2846 13.4751C31.6292 13.8132 31.8016 14.2524 31.8016 14.7926C31.8016 15.25 31.669 15.6577 31.4039 16.0156C31.142 16.3703 30.7758 16.6487 30.3051 16.8509C29.8378 17.053 29.2959 17.1541 28.6794 17.1541C27.8243 17.1541 27.1266 16.9718 26.5864 16.6072C26.0462 16.2393 25.7147 15.7173 25.5921 15.0412L27.0289 14.8224C27.1184 15.197 27.3023 15.4804 27.5807 15.6726C27.8591 15.8615 28.2221 15.956 28.6695 15.956C29.1567 15.956 29.5462 15.8549 29.8378 15.6527C30.1295 15.4472 30.2753 15.197 30.2753 14.902C30.2753 14.6634 30.1858 14.4628 30.0069 14.3004C29.8312 14.138 29.5611 14.0154 29.1965 13.9325L27.9039 13.6491C27.1913 13.4867 26.6643 13.2282 26.3229 12.8736C25.9848 12.5189 25.8158 12.0698 25.8158 11.5263C25.8158 11.0755 25.9417 10.6811 26.1936 10.343C26.4455 10.005 26.7935 9.74148 27.2377 9.55256C27.6818 9.36032 28.1906 9.2642 28.764 9.2642C29.5892 9.2642 30.2389 9.44318 30.7128 9.80114C31.1868 10.1558 31.5 10.6314 31.6524 11.228ZM33.336 17V9.36364H34.8225V17H33.336ZM34.0867 8.18537C33.8282 8.18537 33.6061 8.09919 33.4205 7.92685C33.2382 7.75118 33.1471 7.54238 33.1471 7.30043C33.1471 7.05516 33.2382 6.84635 33.4205 6.67401C33.6061 6.49834 33.8282 6.41051 34.0867 6.41051C34.3452 6.41051 34.5656 6.49834 34.7479 6.67401C34.9335 6.84635 35.0264 7.05516 35.0264 7.30043C35.0264 7.54238 34.9335 7.75118 34.7479 7.92685C34.5656 8.09919 34.3452 8.18537 34.0867 8.18537ZM39.939 17.1541C39.1998 17.1541 38.5635 16.9867 38.0299 16.652C37.4996 16.3139 37.0919 15.8482 36.8069 15.255C36.5218 14.6617 36.3793 13.9822 36.3793 13.2166C36.3793 12.4411 36.5251 11.7566 36.8168 11.1634C37.1085 10.5668 37.5194 10.1011 38.0498 9.76633C38.5801 9.43158 39.2048 9.2642 39.924 9.2642C40.5041 9.2642 41.0211 9.37192 41.4752 9.58736C41.9293 9.79948 42.2955 10.0978 42.5739 10.4822C42.8556 10.8667 43.023 11.3158 43.076 11.8295H41.6293C41.5498 11.4716 41.3675 11.1634 41.0824 10.9048C40.8007 10.6463 40.4229 10.517 39.9489 10.517C39.5346 10.517 39.1717 10.6264 38.8601 10.8452C38.5519 11.0606 38.3116 11.3688 38.1392 11.7699C37.9669 12.1676 37.8807 12.6383 37.8807 13.1818C37.8807 13.7386 37.9652 14.2192 38.1343 14.6236C38.3033 15.0279 38.5419 15.3411 38.8502 15.5632C39.1617 15.7853 39.528 15.8963 39.9489 15.8963C40.2306 15.8963 40.4858 15.8449 40.7145 15.7422C40.9465 15.6361 41.1404 15.4853 41.2962 15.2898C41.4553 15.0942 41.5663 14.8589 41.6293 14.5838H43.076C43.023 15.0777 42.8623 15.5185 42.5938 15.9062C42.3253 16.294 41.9657 16.599 41.515 16.821C41.0675 17.0431 40.5422 17.1541 39.939 17.1541Z" fill="white"/>
</svg>
