<svg width="428" height="50" viewBox="0 0 428 50" fill="none" xmlns="http://www.w3.org/2000/svg">
<g filter="url(#filter0_d_1231_62589)">
<rect x="2" y="1" width="424" height="46" rx="6" fill="#437EF7"/>
<path d="M192.505 21.0898C192.455 20.6246 192.245 20.2624 191.876 20.0032C191.51 19.744 191.034 19.6143 190.449 19.6143C190.037 19.6143 189.683 19.6765 189.388 19.8008C189.094 19.9251 188.868 20.0937 188.712 20.3068C188.556 20.5199 188.476 20.7631 188.472 21.0366C188.472 21.2638 188.524 21.4609 188.627 21.6278C188.733 21.7947 188.877 21.9368 189.058 22.054C189.239 22.1676 189.44 22.2635 189.66 22.3416C189.88 22.4197 190.102 22.4854 190.326 22.5387L191.349 22.7944C191.761 22.8903 192.157 23.0199 192.537 23.1832C192.92 23.3466 193.263 23.5526 193.565 23.8011C193.87 24.0497 194.112 24.3498 194.289 24.7013C194.467 25.0529 194.555 25.4648 194.555 25.9371C194.555 26.5763 194.392 27.1392 194.065 27.6257C193.739 28.1087 193.266 28.4869 192.648 28.7603C192.034 29.0302 191.29 29.1651 190.417 29.1651C189.568 29.1651 188.831 29.0337 188.206 28.771C187.585 28.5082 187.098 28.1246 186.746 27.6204C186.398 27.1161 186.21 26.5018 186.182 25.7773H188.126C188.154 26.1573 188.272 26.4734 188.478 26.7255C188.684 26.9776 188.952 27.1658 189.282 27.2901C189.616 27.4144 189.989 27.4766 190.401 27.4766C190.83 27.4766 191.207 27.4126 191.53 27.2848C191.857 27.1534 192.112 26.9723 192.297 26.7415C192.482 26.5071 192.576 26.2337 192.579 25.9212C192.576 25.6371 192.492 25.4027 192.329 25.218C192.165 25.0298 191.936 24.8736 191.642 24.7493C191.35 24.6214 191.01 24.5078 190.619 24.4084L189.378 24.0888C188.479 23.858 187.769 23.5082 187.247 23.0394C186.729 22.5671 186.469 21.9403 186.469 21.1591C186.469 20.5163 186.643 19.9535 186.991 19.4705C187.343 18.9876 187.821 18.6129 188.424 18.3466C189.028 18.0767 189.712 17.9418 190.475 17.9418C191.249 17.9418 191.928 18.0767 192.51 18.3466C193.096 18.6129 193.556 18.984 193.89 19.4599C194.223 19.9322 194.396 20.4755 194.406 21.0898H192.505ZM196.232 29V20.8182H198.16V29H196.232ZM197.201 19.657C196.896 19.657 196.633 19.5558 196.413 19.3533C196.193 19.1474 196.083 18.9006 196.083 18.6129C196.083 18.3217 196.193 18.0749 196.413 17.8725C196.633 17.6665 196.896 17.5636 197.201 17.5636C197.51 17.5636 197.773 17.6665 197.99 17.8725C198.21 18.0749 198.32 18.3217 198.32 18.6129C198.32 18.9006 198.21 19.1474 197.99 19.3533C197.773 19.5558 197.51 19.657 197.201 19.657ZM203.701 32.2386C203.009 32.2386 202.414 32.1445 201.917 31.9563C201.42 31.7717 201.02 31.5231 200.718 31.2106C200.417 30.8981 200.207 30.5518 200.09 30.1719L201.826 29.7511C201.904 29.9109 202.018 30.0689 202.167 30.2251C202.316 30.3849 202.517 30.5163 202.769 30.6193C203.025 30.7259 203.346 30.7791 203.733 30.7791C204.28 30.7791 204.733 30.646 205.092 30.3796C205.45 30.1168 205.63 29.6836 205.63 29.0799V27.5298H205.534C205.434 27.7287 205.289 27.9329 205.097 28.1424C204.909 28.3519 204.658 28.5277 204.346 28.6697C204.037 28.8118 203.648 28.8828 203.179 28.8828C202.551 28.8828 201.981 28.7354 201.469 28.4407C200.962 28.1424 200.557 27.6985 200.255 27.109C199.957 26.516 199.808 25.7738 199.808 24.8825C199.808 23.984 199.957 23.2259 200.255 22.608C200.557 21.9865 200.963 21.516 201.475 21.1964C201.986 20.8732 202.556 20.7116 203.185 20.7116C203.664 20.7116 204.058 20.7933 204.367 20.9567C204.68 21.1165 204.928 21.31 205.113 21.5373C205.298 21.761 205.438 21.9723 205.534 22.1712H205.64V20.8182H207.542V29.1332C207.542 29.8327 207.375 30.4116 207.041 30.8697C206.707 31.3278 206.251 31.6705 205.672 31.8977C205.093 32.125 204.436 32.2386 203.701 32.2386ZM203.717 27.37C204.126 27.37 204.474 27.2706 204.761 27.0717C205.049 26.8729 205.267 26.587 205.417 26.2141C205.566 25.8413 205.64 25.3938 205.64 24.8718C205.64 24.3569 205.566 23.9059 205.417 23.5188C205.271 23.1317 205.054 22.8317 204.767 22.6186C204.483 22.402 204.133 22.2937 203.717 22.2937C203.288 22.2937 202.929 22.4055 202.641 22.6293C202.354 22.853 202.137 23.1602 201.991 23.5508C201.846 23.9379 201.773 24.3782 201.773 24.8718C201.773 25.3725 201.846 25.8111 201.991 26.1875C202.141 26.5604 202.359 26.8516 202.647 27.0611C202.938 27.267 203.295 27.37 203.717 27.37ZM211.446 24.206V29H209.518V20.8182H211.361V22.2085H211.457C211.645 21.7504 211.945 21.3864 212.357 21.1165C212.773 20.8466 213.286 20.7116 213.897 20.7116C214.461 20.7116 214.953 20.8324 215.372 21.0739C215.795 21.3153 216.121 21.6651 216.352 22.1232C216.587 22.5813 216.702 23.1371 216.699 23.7905V29H214.77V24.0888C214.77 23.5419 214.628 23.114 214.344 22.805C214.064 22.4961 213.675 22.3416 213.178 22.3416C212.84 22.3416 212.54 22.4162 212.277 22.5653C212.018 22.7109 211.814 22.9222 211.665 23.1992C211.519 23.4762 211.446 23.8118 211.446 24.206ZM229.341 18.0909H231.318V25.218C231.318 25.9993 231.133 26.6864 230.764 27.2795C230.398 27.8725 229.883 28.3359 229.219 28.6697C228.555 29 227.779 29.1651 226.891 29.1651C226 29.1651 225.222 29 224.558 28.6697C223.894 28.3359 223.379 27.8725 223.013 27.2795C222.648 26.6864 222.465 25.9993 222.465 25.218V18.0909H224.441V25.0529C224.441 25.5075 224.54 25.9123 224.739 26.2674C224.942 26.6225 225.226 26.9013 225.591 27.1037C225.957 27.3026 226.39 27.402 226.891 27.402C227.392 27.402 227.825 27.3026 228.191 27.1037C228.56 26.9013 228.844 26.6225 229.043 26.2674C229.242 25.9123 229.341 25.5075 229.341 25.0529V18.0909ZM233.38 32.0682V20.8182H235.277V22.1712H235.389C235.488 21.9723 235.628 21.761 235.809 21.5373C235.991 21.31 236.236 21.1165 236.544 20.9567C236.853 20.7933 237.248 20.7116 237.727 20.7116C238.359 20.7116 238.929 20.8732 239.437 21.1964C239.948 21.516 240.353 21.9901 240.651 22.6186C240.953 23.2436 241.104 24.0107 241.104 24.9197C241.104 25.8182 240.957 26.5817 240.662 27.2102C240.367 27.8388 239.966 28.3182 239.458 28.6484C238.95 28.9787 238.375 29.1438 237.732 29.1438C237.264 29.1438 236.875 29.0657 236.566 28.9094C236.257 28.7532 236.008 28.565 235.82 28.3448C235.635 28.1211 235.492 27.9098 235.389 27.7109H235.309V32.0682H233.38ZM235.271 24.9091C235.271 25.4382 235.346 25.9016 235.495 26.2994C235.648 26.6971 235.866 27.0078 236.15 27.2315C236.438 27.4517 236.786 27.5618 237.194 27.5618C237.62 27.5618 237.977 27.4482 238.265 27.2209C238.553 26.9901 238.769 26.6758 238.915 26.2781C239.064 25.8768 239.139 25.4205 239.139 24.9091C239.139 24.4013 239.066 23.9503 238.92 23.5561C238.775 23.1619 238.558 22.853 238.27 22.6293C237.983 22.4055 237.624 22.2937 237.194 22.2937C236.782 22.2937 236.433 22.402 236.145 22.6186C235.857 22.8352 235.639 23.1388 235.49 23.5295C235.344 23.9201 235.271 24.38 235.271 24.9091Z" fill="white"/>
</g>
<defs>
<filter id="filter0_d_1231_62589" x="0" y="0" width="428" height="50" filterUnits="userSpaceOnUse" color-interpolation-filters="sRGB">
<feFlood flood-opacity="0" result="BackgroundImageFix"/>
<feColorMatrix in="SourceAlpha" type="matrix" values="0 0 0 0 0 0 0 0 0 0 0 0 0 0 0 0 0 0 127 0" result="hardAlpha"/>
<feOffset dy="1"/>
<feGaussianBlur stdDeviation="1"/>
<feComposite in2="hardAlpha" operator="out"/>
<feColorMatrix type="matrix" values="0 0 0 0 0.0627451 0 0 0 0 0.0941176 0 0 0 0 0.156863 0 0 0 0.04 0"/>
<feBlend mode="normal" in2="BackgroundImageFix" result="effect1_dropShadow_1231_62589"/>
<feBlend mode="normal" in="SourceGraphic" in2="effect1_dropShadow_1231_62589" result="shape"/>
</filter>
</defs>
</svg>
