<svg width="163" height="50" viewBox="0 0 163 50" fill="none" xmlns="http://www.w3.org/2000/svg">
<g clip-path="url(#clip0_1151_69010)">
<path d="M7.00462 21.0898C6.9549 20.6246 6.74538 20.2624 6.37607 20.0032C6.0103 19.744 5.53445 19.6143 4.94851 19.6143C4.53658 19.6143 4.18324 19.6765 3.88849 19.8008C3.59375 19.9251 3.36825 20.0937 3.212 20.3068C3.05575 20.5199 2.97585 20.7631 2.9723 21.0366C2.9723 21.2638 3.02379 21.4609 3.12678 21.6278C3.23331 21.7947 3.37713 21.9368 3.55824 22.054C3.73935 22.1676 3.93999 22.2635 4.16016 22.3416C4.38033 22.4197 4.60227 22.4854 4.82599 22.5387L5.84872 22.7944C6.26065 22.8903 6.65661 23.0199 7.03658 23.1832C7.4201 23.3466 7.76278 23.5526 8.06463 23.8011C8.37003 24.0497 8.61151 24.3498 8.78906 24.7013C8.96662 25.0529 9.0554 25.4648 9.0554 25.9371C9.0554 26.5763 8.89205 27.1392 8.56534 27.6257C8.23864 28.1087 7.76634 28.4869 7.14844 28.7603C6.53409 29.0302 5.79013 29.1651 4.91655 29.1651C4.06783 29.1651 3.33097 29.0337 2.70597 28.771C2.08452 28.5082 1.59801 28.1246 1.24645 27.6204C0.898438 27.1161 0.710227 26.5018 0.681818 25.7773H2.62607C2.65447 26.1573 2.77166 26.4734 2.97763 26.7255C3.18359 26.9776 3.4517 27.1658 3.78196 27.2901C4.11577 27.4144 4.48864 27.4766 4.90057 27.4766C5.33026 27.4766 5.70668 27.4126 6.02983 27.2848C6.35653 27.1534 6.61222 26.9723 6.79688 26.7415C6.98153 26.5071 7.07564 26.2337 7.07919 25.9212C7.07564 25.6371 6.99219 25.4027 6.82884 25.218C6.66548 25.0298 6.43643 24.8736 6.14169 24.7493C5.8505 24.6214 5.50959 24.5078 5.11896 24.4084L3.87784 24.0888C2.9794 23.858 2.26918 23.5082 1.74716 23.0394C1.22869 22.5671 0.96946 21.9403 0.96946 21.1591C0.96946 20.5163 1.14347 19.9535 1.49148 19.4705C1.84304 18.9876 2.32067 18.6129 2.92436 18.3466C3.52805 18.0767 4.21165 17.9418 4.97514 17.9418C5.74929 17.9418 6.42756 18.0767 7.00994 18.3466C7.59588 18.6129 8.05575 18.984 8.38956 19.4599C8.72337 19.9322 8.8956 20.4755 8.90625 21.0898H7.00462ZM10.732 29V20.8182H12.6602V29H10.732ZM11.7014 19.657C11.396 19.657 11.1333 19.5558 10.9131 19.3533C10.6929 19.1474 10.5828 18.9006 10.5828 18.6129C10.5828 18.3217 10.6929 18.0749 10.9131 17.8725C11.1333 17.6665 11.396 17.5636 11.7014 17.5636C12.0104 17.5636 12.2732 17.6665 12.4898 17.8725C12.71 18.0749 12.82 18.3217 12.82 18.6129C12.82 18.9006 12.71 19.1474 12.4898 19.3533C12.2732 19.5558 12.0104 19.657 11.7014 19.657ZM18.2013 32.2386C17.5089 32.2386 16.9141 32.1445 16.4169 31.9563C15.9197 31.7717 15.5202 31.5231 15.2184 31.2106C14.9165 30.8981 14.707 30.5518 14.5898 30.1719L16.3263 29.7511C16.4045 29.9109 16.5181 30.0689 16.6673 30.2251C16.8164 30.3849 17.017 30.5163 17.2692 30.6193C17.5249 30.7259 17.8462 30.7791 18.2333 30.7791C18.7802 30.7791 19.233 30.646 19.5916 30.3796C19.9503 30.1168 20.1296 29.6836 20.1296 29.0799V27.5298H20.0337C19.9343 27.7287 19.7887 27.9329 19.5969 28.1424C19.4087 28.3519 19.1584 28.5277 18.8459 28.6697C18.5369 28.8118 18.1481 28.8828 17.6793 28.8828C17.0508 28.8828 16.4808 28.7354 15.9695 28.4407C15.4616 28.1424 15.0568 27.6985 14.755 27.109C14.4567 26.516 14.3075 25.7738 14.3075 24.8825C14.3075 23.984 14.4567 23.2259 14.755 22.608C15.0568 21.9865 15.4634 21.516 15.9748 21.1964C16.4862 20.8732 17.0561 20.7116 17.6847 20.7116C18.1641 20.7116 18.5582 20.7933 18.8672 20.9567C19.1797 21.1165 19.4283 21.31 19.6129 21.5373C19.7976 21.761 19.9379 21.9723 20.0337 22.1712H20.1403V20.8182H22.0419V29.1332C22.0419 29.8327 21.875 30.4116 21.5412 30.8697C21.2074 31.3278 20.7511 31.6705 20.1722 31.8977C19.5934 32.125 18.9364 32.2386 18.2013 32.2386ZM18.2173 27.37C18.6257 27.37 18.9737 27.2706 19.2614 27.0717C19.549 26.8729 19.7674 26.587 19.9165 26.2141C20.0657 25.8413 20.1403 25.3938 20.1403 24.8718C20.1403 24.3569 20.0657 23.9059 19.9165 23.5188C19.771 23.1317 19.5543 22.8317 19.2667 22.6186C18.9826 22.402 18.6328 22.2937 18.2173 22.2937C17.7876 22.2937 17.429 22.4055 17.1413 22.6293C16.8537 22.853 16.6371 23.1602 16.4915 23.5508C16.3459 23.9379 16.2731 24.3782 16.2731 24.8718C16.2731 25.3725 16.3459 25.8111 16.4915 26.1875C16.6406 26.5604 16.859 26.8516 17.1467 27.0611C17.4379 27.267 17.7947 27.37 18.2173 27.37ZM25.9464 24.206V29H24.0181V20.8182H25.8612V22.2085H25.957C26.1452 21.7504 26.4453 21.3864 26.8572 21.1165C27.2727 20.8466 27.7859 20.7116 28.3967 20.7116C28.9613 20.7116 29.4531 20.8324 29.8722 21.0739C30.2947 21.3153 30.6214 21.6651 30.8523 22.1232C31.0866 22.5813 31.2021 23.1371 31.1985 23.7905V29H29.2702V24.0888C29.2702 23.5419 29.1282 23.114 28.8441 22.805C28.5636 22.4961 28.1747 22.3416 27.6776 22.3416C27.3402 22.3416 27.0401 22.4162 26.7773 22.5653C26.5181 22.7109 26.3139 22.9222 26.1648 23.1992C26.0192 23.4762 25.9464 23.8118 25.9464 24.206ZM43.8414 18.0909H45.8176V25.218C45.8176 25.9993 45.633 26.6864 45.2637 27.2795C44.8979 27.8725 44.383 28.3359 43.7189 28.6697C43.0549 29 42.2789 29.1651 41.3912 29.1651C40.4998 29.1651 39.7221 29 39.0581 28.6697C38.394 28.3359 37.8791 27.8725 37.5133 27.2795C37.1475 26.6864 36.9647 25.9993 36.9647 25.218V18.0909H38.9409V25.0529C38.9409 25.5075 39.0403 25.9123 39.2392 26.2674C39.4416 26.6225 39.7257 26.9013 40.0914 27.1037C40.4572 27.3026 40.8904 27.402 41.3912 27.402C41.8919 27.402 42.3251 27.3026 42.6909 27.1037C43.0602 26.9013 43.3443 26.6225 43.5431 26.2674C43.742 25.9123 43.8414 25.5075 43.8414 25.0529V18.0909ZM47.8804 32.0682V20.8182H49.7767V22.1712H49.8886C49.988 21.9723 50.1283 21.761 50.3094 21.5373C50.4905 21.31 50.7355 21.1165 51.0445 20.9567C51.3534 20.7933 51.7476 20.7116 52.227 20.7116C52.8591 20.7116 53.4291 20.8732 53.9369 21.1964C54.4482 21.516 54.8531 21.9901 55.1514 22.6186C55.4532 23.2436 55.6041 24.0107 55.6041 24.9197C55.6041 25.8182 55.4568 26.5817 55.162 27.2102C54.8673 27.8388 54.466 28.3182 53.9582 28.6484C53.4504 28.9787 52.8751 29.1438 52.2323 29.1438C51.7636 29.1438 51.3747 29.0657 51.0658 28.9094C50.7568 28.7532 50.5083 28.565 50.32 28.3448C50.1354 28.1211 49.9916 27.9098 49.8886 27.7109H49.8087V32.0682H47.8804ZM49.7714 24.9091C49.7714 25.4382 49.846 25.9016 49.9951 26.2994C50.1478 26.6971 50.3662 27.0078 50.6503 27.2315C50.9379 27.4517 51.286 27.5618 51.6943 27.5618C52.1205 27.5618 52.4774 27.4482 52.765 27.2209C53.0526 26.9901 53.2693 26.6758 53.4149 26.2781C53.564 25.8768 53.6386 25.4205 53.6386 24.9091C53.6386 24.4013 53.5658 23.9503 53.4202 23.5561C53.2746 23.1619 53.058 22.853 52.7703 22.6293C52.4827 22.4055 52.124 22.2937 51.6943 22.2937C51.2824 22.2937 50.9326 22.402 50.645 22.6186C50.3573 22.8352 50.1389 23.1388 49.9898 23.5295C49.8442 23.9201 49.7714 24.38 49.7714 24.9091Z" fill="#437EF7"/>
</g>
<g filter="url(#filter0_d_1151_69010)">
<rect x="81" y="1" width="80" height="46" rx="6" fill="#437EF7"/>
<path d="M100.076 29V18.0909H102.052V27.3434H106.857V29H100.076ZM112.056 29.1598C111.257 29.1598 110.564 28.984 109.978 28.6325C109.392 28.2809 108.938 27.7891 108.615 27.157C108.295 26.5249 108.135 25.7862 108.135 24.9411C108.135 24.0959 108.295 23.3555 108.615 22.7198C108.938 22.0842 109.392 21.5906 109.978 21.239C110.564 20.8874 111.257 20.7116 112.056 20.7116C112.855 20.7116 113.547 20.8874 114.133 21.239C114.719 21.5906 115.172 22.0842 115.491 22.7198C115.815 23.3555 115.976 24.0959 115.976 24.9411C115.976 25.7862 115.815 26.5249 115.491 27.157C115.172 27.7891 114.719 28.2809 114.133 28.6325C113.547 28.984 112.855 29.1598 112.056 29.1598ZM112.066 27.6151C112.5 27.6151 112.862 27.4961 113.153 27.2582C113.444 27.0167 113.661 26.6935 113.803 26.2887C113.949 25.8839 114.021 25.4329 114.021 24.9357C114.021 24.435 113.949 23.9822 113.803 23.5774C113.661 23.169 113.444 22.8441 113.153 22.6026C112.862 22.3612 112.5 22.2404 112.066 22.2404C111.623 22.2404 111.253 22.3612 110.958 22.6026C110.667 22.8441 110.449 23.169 110.303 23.5774C110.161 23.9822 110.09 24.435 110.09 24.9357C110.09 25.4329 110.161 25.8839 110.303 26.2887C110.449 26.6935 110.667 27.0167 110.958 27.2582C111.253 27.4961 111.623 27.6151 112.066 27.6151ZM121.171 32.2386C120.479 32.2386 119.884 32.1445 119.387 31.9563C118.889 31.7717 118.49 31.5231 118.188 31.2106C117.886 30.8981 117.677 30.5518 117.56 30.1719L119.296 29.7511C119.374 29.9109 119.488 30.0689 119.637 30.2251C119.786 30.3849 119.987 30.5163 120.239 30.6193C120.495 30.7259 120.816 30.7791 121.203 30.7791C121.75 30.7791 122.203 30.646 122.561 30.3796C122.92 30.1168 123.099 29.6836 123.099 29.0799V27.5298H123.003C122.904 27.7287 122.758 27.9329 122.567 28.1424C122.378 28.3519 122.128 28.5277 121.816 28.6697C121.507 28.8118 121.118 28.8828 120.649 28.8828C120.021 28.8828 119.451 28.7354 118.939 28.4407C118.431 28.1424 118.027 27.6985 117.725 27.109C117.426 26.516 117.277 25.7738 117.277 24.8825C117.277 23.984 117.426 23.2259 117.725 22.608C118.027 21.9865 118.433 21.516 118.945 21.1964C119.456 20.8732 120.026 20.7116 120.654 20.7116C121.134 20.7116 121.528 20.7933 121.837 20.9567C122.149 21.1165 122.398 21.31 122.583 21.5373C122.767 21.761 122.908 21.9723 123.003 22.1712H123.11V20.8182H125.012V29.1332C125.012 29.8327 124.845 30.4116 124.511 30.8697C124.177 31.3278 123.721 31.6705 123.142 31.8977C122.563 32.125 121.906 32.2386 121.171 32.2386ZM121.187 27.37C121.595 27.37 121.943 27.2706 122.231 27.0717C122.519 26.8729 122.737 26.587 122.886 26.2141C123.035 25.8413 123.11 25.3938 123.11 24.8718C123.11 24.3569 123.035 23.9059 122.886 23.5188C122.741 23.1317 122.524 22.8317 122.236 22.6186C121.952 22.402 121.603 22.2937 121.187 22.2937C120.757 22.2937 120.399 22.4055 120.111 22.6293C119.823 22.853 119.607 23.1602 119.461 23.5508C119.316 23.9379 119.243 24.3782 119.243 24.8718C119.243 25.3725 119.316 25.8111 119.461 26.1875C119.61 26.5604 119.829 26.8516 120.116 27.0611C120.408 27.267 120.764 27.37 121.187 27.37ZM132.77 18.0909V29H130.794V18.0909H132.77ZM136.753 24.206V29H134.825V20.8182H136.668V22.2085H136.764C136.952 21.7504 137.252 21.3864 137.664 21.1165C138.079 20.8466 138.593 20.7116 139.203 20.7116C139.768 20.7116 140.26 20.8324 140.679 21.0739C141.101 21.3153 141.428 21.6651 141.659 22.1232C141.893 22.5813 142.009 23.1371 142.005 23.7905V29H140.077V24.0888C140.077 23.5419 139.935 23.114 139.651 22.805C139.37 22.4961 138.981 22.3416 138.484 22.3416C138.147 22.3416 137.847 22.4162 137.584 22.5653C137.325 22.7109 137.121 22.9222 136.971 23.1992C136.826 23.4762 136.753 23.8118 136.753 24.206Z" fill="white"/>
</g>
<defs>
<filter id="filter0_d_1151_69010" x="79" y="0" width="84" height="50" filterUnits="userSpaceOnUse" color-interpolation-filters="sRGB">
<feFlood flood-opacity="0" result="BackgroundImageFix"/>
<feColorMatrix in="SourceAlpha" type="matrix" values="0 0 0 0 0 0 0 0 0 0 0 0 0 0 0 0 0 0 127 0" result="hardAlpha"/>
<feOffset dy="1"/>
<feGaussianBlur stdDeviation="1"/>
<feComposite in2="hardAlpha" operator="out"/>
<feColorMatrix type="matrix" values="0 0 0 0 0.0627451 0 0 0 0 0.0941176 0 0 0 0 0.156863 0 0 0 0.04 0"/>
<feBlend mode="normal" in2="BackgroundImageFix" result="effect1_dropShadow_1151_69010"/>
<feBlend mode="normal" in="SourceGraphic" in2="effect1_dropShadow_1151_69010" result="shape"/>
</filter>
<clipPath id="clip0_1151_69010">
<rect y="13" width="57" height="22" rx="5" fill="white"/>
</clipPath>
</defs>
</svg>
