<svg width="324" height="50" viewBox="0 0 324 50" fill="none" xmlns="http://www.w3.org/2000/svg">
<g filter="url(#filter0_d_3_68667)">
<rect x="2" y="1" width="320" height="46" rx="6" fill="#437EF7"/>
<path d="M132.076 29V18.0909H136.252C137.04 18.0909 137.696 18.2152 138.218 18.4638C138.743 18.7088 139.136 19.0444 139.395 19.4705C139.658 19.8967 139.789 20.3796 139.789 20.9194C139.789 21.3633 139.704 21.7433 139.533 22.0593C139.363 22.3718 139.134 22.6257 138.846 22.821C138.559 23.0163 138.237 23.1566 137.882 23.2418V23.3484C138.269 23.3697 138.64 23.4886 138.995 23.7053C139.354 23.9183 139.647 24.2202 139.874 24.6108C140.102 25.0014 140.215 25.4737 140.215 26.0277C140.215 26.5923 140.078 27.1001 139.805 27.5511C139.532 27.9986 139.12 28.3519 138.569 28.6112C138.019 28.8704 137.326 29 136.492 29H132.076ZM134.052 27.3487H136.178C136.895 27.3487 137.412 27.212 137.728 26.9386C138.047 26.6616 138.207 26.3065 138.207 25.8732C138.207 25.5501 138.127 25.2589 137.967 24.9996C137.808 24.7369 137.58 24.5309 137.286 24.3817C136.991 24.229 136.639 24.1527 136.231 24.1527H134.052V27.3487ZM134.052 22.7305H136.007C136.348 22.7305 136.655 22.6683 136.929 22.544C137.202 22.4162 137.417 22.2369 137.573 22.006C137.733 21.7717 137.813 21.4947 137.813 21.1751C137.813 20.7525 137.664 20.4045 137.365 20.131C137.071 19.8576 136.632 19.7209 136.05 19.7209H134.052V22.7305ZM147.064 25.5589V20.8182H148.992V29H147.123V27.5458H147.037C146.853 28.0039 146.549 28.3786 146.127 28.6697C145.707 28.9609 145.191 29.1065 144.576 29.1065C144.04 29.1065 143.566 28.9876 143.154 28.7496C142.746 28.5082 142.426 28.1584 142.195 27.7003C141.965 27.2386 141.849 26.6811 141.849 26.0277V20.8182H143.777V25.7294C143.777 26.2479 143.919 26.6598 144.204 26.9652C144.488 27.2706 144.861 27.4233 145.322 27.4233C145.606 27.4233 145.881 27.354 146.148 27.2156C146.414 27.0771 146.633 26.8711 146.803 26.5977C146.977 26.3207 147.064 25.9744 147.064 25.5589ZM152.174 32.0682C151.911 32.0682 151.668 32.0469 151.444 32.0043C151.224 31.9652 151.048 31.919 150.917 31.8658L151.364 30.3636C151.645 30.4453 151.895 30.4844 152.115 30.4808C152.335 30.4773 152.529 30.408 152.696 30.2731C152.866 30.1417 153.01 29.9215 153.127 29.6126L153.292 29.1705L150.325 20.8182H152.371L154.256 26.9972H154.342L156.233 20.8182H158.283L155.007 29.9908C154.855 30.424 154.652 30.7951 154.4 31.104C154.148 31.4165 153.839 31.6545 153.473 31.8178C153.111 31.9847 152.678 32.0682 152.174 32.0682ZM165.267 24.206V29H163.338V20.8182H165.181V22.2085H165.277C165.466 21.7504 165.766 21.3864 166.178 21.1165C166.593 20.8466 167.106 20.7116 167.717 20.7116C168.282 20.7116 168.773 20.8324 169.192 21.0739C169.615 21.3153 169.942 21.6651 170.173 22.1232C170.407 22.5813 170.522 23.1371 170.519 23.7905V29H168.591V24.0888C168.591 23.5419 168.449 23.114 168.164 22.805C167.884 22.4961 167.495 22.3416 166.998 22.3416C166.661 22.3416 166.36 22.4162 166.098 22.5653C165.838 22.7109 165.634 22.9222 165.485 23.1992C165.339 23.4762 165.267 23.8118 165.267 24.206ZM176.048 29.1598C175.249 29.1598 174.556 28.984 173.971 28.6325C173.385 28.2809 172.93 27.7891 172.607 27.157C172.287 26.5249 172.127 25.7862 172.127 24.9411C172.127 24.0959 172.287 23.3555 172.607 22.7198C172.93 22.0842 173.385 21.5906 173.971 21.239C174.556 20.8874 175.249 20.7116 176.048 20.7116C176.847 20.7116 177.539 20.8874 178.125 21.239C178.711 21.5906 179.164 22.0842 179.484 22.7198C179.807 23.3555 179.968 24.0959 179.968 24.9411C179.968 25.7862 179.807 26.5249 179.484 27.157C179.164 27.7891 178.711 28.2809 178.125 28.6325C177.539 28.984 176.847 29.1598 176.048 29.1598ZM176.059 27.6151C176.492 27.6151 176.854 27.4961 177.145 27.2582C177.436 27.0167 177.653 26.6935 177.795 26.2887C177.941 25.8839 178.013 25.4329 178.013 24.9357C178.013 24.435 177.941 23.9822 177.795 23.5774C177.653 23.169 177.436 22.8441 177.145 22.6026C176.854 22.3612 176.492 22.2404 176.059 22.2404C175.615 22.2404 175.245 22.3612 174.951 22.6026C174.659 22.8441 174.441 23.169 174.295 23.5774C174.153 23.9822 174.082 24.435 174.082 24.9357C174.082 25.4329 174.153 25.8839 174.295 26.2887C174.441 26.6935 174.659 27.0167 174.951 27.2582C175.245 27.4961 175.615 27.6151 176.059 27.6151ZM183.059 29L180.747 20.8182H182.713L184.151 26.571H184.226L185.696 20.8182H187.64L189.11 26.5391H189.19L190.607 20.8182H192.578L190.261 29H188.253L186.719 23.4709H186.607L185.073 29H183.059Z" fill="white"/>
</g>
<defs>
<filter id="filter0_d_3_68667" x="0" y="0" width="324" height="50" filterUnits="userSpaceOnUse" color-interpolation-filters="sRGB">
<feFlood flood-opacity="0" result="BackgroundImageFix"/>
<feColorMatrix in="SourceAlpha" type="matrix" values="0 0 0 0 0 0 0 0 0 0 0 0 0 0 0 0 0 0 127 0" result="hardAlpha"/>
<feOffset dy="1"/>
<feGaussianBlur stdDeviation="1"/>
<feComposite in2="hardAlpha" operator="out"/>
<feColorMatrix type="matrix" values="0 0 0 0 0.0627451 0 0 0 0 0.0941176 0 0 0 0 0.156863 0 0 0 0.04 0"/>
<feBlend mode="normal" in2="BackgroundImageFix" result="effect1_dropShadow_3_68667"/>
<feBlend mode="normal" in="SourceGraphic" in2="effect1_dropShadow_3_68667" result="shape"/>
</filter>
</defs>
</svg>
