<svg width="428" height="50" viewBox="0 0 428 50" fill="none" xmlns="http://www.w3.org/2000/svg">
<g filter="url(#filter0_d_4_126051)">
<rect x="2" y="1" width="424" height="46" rx="6" fill="#437EF7"/>
<path d="M190.914 21.7717H188.922C188.865 21.445 188.76 21.1555 188.607 20.9034C188.455 20.6477 188.265 20.4311 188.037 20.2536C187.81 20.076 187.551 19.9428 187.26 19.854C186.972 19.7617 186.661 19.7156 186.327 19.7156C185.734 19.7156 185.209 19.8647 184.751 20.163C184.293 20.4577 183.934 20.891 183.675 21.4627C183.415 22.0309 183.286 22.7251 183.286 23.5455C183.286 24.38 183.415 25.0831 183.675 25.6548C183.938 26.223 184.296 26.6527 184.751 26.9439C185.209 27.2315 185.733 27.3754 186.322 27.3754C186.649 27.3754 186.954 27.3327 187.238 27.2475C187.526 27.1587 187.783 27.0291 188.011 26.8587C188.241 26.6882 188.435 26.4787 188.591 26.2301C188.751 25.9815 188.861 25.6974 188.922 25.3778L190.914 25.3885C190.839 25.907 190.678 26.3935 190.429 26.848C190.184 27.3026 189.863 27.7038 189.465 28.0518C189.067 28.3963 188.602 28.6662 188.069 28.8615C187.537 29.0533 186.945 29.1491 186.295 29.1491C185.337 29.1491 184.481 28.9272 183.728 28.4833C182.975 28.0394 182.382 27.3984 181.949 26.5604C181.516 25.7223 181.299 24.7173 181.299 23.5455C181.299 22.37 181.517 21.3651 181.954 20.5305C182.391 19.6925 182.986 19.0515 183.739 18.6076C184.491 18.1637 185.344 17.9418 186.295 17.9418C186.903 17.9418 187.467 18.027 187.989 18.1974C188.511 18.3679 188.977 18.6183 189.385 18.9485C189.793 19.2752 190.129 19.6765 190.392 20.1523C190.658 20.6246 190.832 21.1644 190.914 21.7717ZM196.207 29.1598C195.408 29.1598 194.716 28.984 194.13 28.6325C193.544 28.2809 193.089 27.7891 192.766 27.157C192.446 26.5249 192.287 25.7862 192.287 24.9411C192.287 24.0959 192.446 23.3555 192.766 22.7198C193.089 22.0842 193.544 21.5906 194.13 21.239C194.716 20.8874 195.408 20.7116 196.207 20.7116C197.006 20.7116 197.699 20.8874 198.285 21.239C198.87 21.5906 199.323 22.0842 199.643 22.7198C199.966 23.3555 200.128 24.0959 200.128 24.9411C200.128 25.7862 199.966 26.5249 199.643 27.157C199.323 27.7891 198.87 28.2809 198.285 28.6325C197.699 28.984 197.006 29.1598 196.207 29.1598ZM196.218 27.6151C196.651 27.6151 197.013 27.4961 197.304 27.2582C197.596 27.0167 197.812 26.6935 197.954 26.2887C198.1 25.8839 198.173 25.4329 198.173 24.9357C198.173 24.435 198.1 23.9822 197.954 23.5774C197.812 23.169 197.596 22.8441 197.304 22.6026C197.013 22.3612 196.651 22.2404 196.218 22.2404C195.774 22.2404 195.405 22.3612 195.11 22.6026C194.819 22.8441 194.6 23.169 194.455 23.5774C194.313 23.9822 194.242 24.435 194.242 24.9357C194.242 25.4329 194.313 25.8839 194.455 26.2887C194.6 26.6935 194.819 27.0167 195.11 27.2582C195.405 27.4961 195.774 27.6151 196.218 27.6151ZM203.692 24.206V29H201.764V20.8182H203.607V22.2085H203.703C203.891 21.7504 204.191 21.3864 204.603 21.1165C205.019 20.8466 205.532 20.7116 206.143 20.7116C206.707 20.7116 207.199 20.8324 207.618 21.0739C208.041 21.3153 208.368 21.6651 208.598 22.1232C208.833 22.5813 208.948 23.1371 208.945 23.7905V29H207.016V24.0888C207.016 23.5419 206.874 23.114 206.59 22.805C206.31 22.4961 205.921 22.3416 205.424 22.3416C205.086 22.3416 204.786 22.4162 204.523 22.5653C204.264 22.7109 204.06 22.9222 203.911 23.1992C203.765 23.4762 203.692 23.8118 203.692 24.206ZM214.99 20.8182V22.3097H210.287V20.8182H214.99ZM211.448 18.858H213.376V26.5391C213.376 26.7983 213.415 26.9972 213.494 27.1357C213.575 27.2706 213.682 27.3629 213.813 27.4126C213.945 27.4624 214.09 27.4872 214.25 27.4872C214.371 27.4872 214.481 27.4783 214.58 27.4606C214.683 27.4428 214.761 27.4268 214.815 27.4126L215.14 28.9201C215.037 28.9556 214.889 28.9947 214.697 29.0373C214.509 29.0799 214.278 29.1048 214.005 29.1119C213.522 29.1261 213.087 29.0533 212.7 28.8935C212.313 28.7301 212.006 28.478 211.778 28.1371C211.555 27.7962 211.445 27.37 211.448 26.8587V18.858ZM216.603 29V20.8182H218.531V29H216.603ZM217.573 19.657C217.267 19.657 217.004 19.5558 216.784 19.3533C216.564 19.1474 216.454 18.9006 216.454 18.6129C216.454 18.3217 216.564 18.0749 216.784 17.8725C217.004 17.6665 217.267 17.5636 217.573 17.5636C217.881 17.5636 218.144 17.6665 218.361 17.8725C218.581 18.0749 218.691 18.3217 218.691 18.6129C218.691 18.9006 218.581 19.1474 218.361 19.3533C218.144 19.5558 217.881 19.657 217.573 19.657ZM222.442 24.206V29H220.514V20.8182H222.357V22.2085H222.453C222.641 21.7504 222.941 21.3864 223.353 21.1165C223.769 20.8466 224.282 20.7116 224.893 20.7116C225.457 20.7116 225.949 20.8324 226.368 21.0739C226.791 21.3153 227.118 21.6651 227.348 22.1232C227.583 22.5813 227.698 23.1371 227.695 23.7905V29H225.766V24.0888C225.766 23.5419 225.624 23.114 225.34 22.805C225.06 22.4961 224.671 22.3416 224.174 22.3416C223.836 22.3416 223.536 22.4162 223.273 22.5653C223.014 22.7109 222.81 22.9222 222.661 23.1992C222.515 23.4762 222.442 23.8118 222.442 24.206ZM234.87 25.5589V20.8182H236.798V29H234.928V27.5458H234.843C234.658 28.0039 234.355 28.3786 233.932 28.6697C233.513 28.9609 232.996 29.1065 232.382 29.1065C231.846 29.1065 231.372 28.9876 230.96 28.7496C230.551 28.5082 230.232 28.1584 230.001 27.7003C229.77 27.2386 229.655 26.6811 229.655 26.0277V20.8182H231.583V25.7294C231.583 26.2479 231.725 26.6598 232.009 26.9652C232.293 27.2706 232.666 27.4233 233.128 27.4233C233.412 27.4233 233.687 27.354 233.953 27.2156C234.22 27.0771 234.438 26.8711 234.609 26.5977C234.783 26.3207 234.87 25.9744 234.87 25.5589ZM242.403 29.1598C241.583 29.1598 240.874 28.9893 240.278 28.6484C239.685 28.304 239.228 27.8175 238.909 27.1889C238.589 26.5568 238.429 25.8129 238.429 24.957C238.429 24.1154 238.589 23.3768 238.909 22.7411C239.232 22.1019 239.683 21.6048 240.262 21.2496C240.84 20.891 241.521 20.7116 242.302 20.7116C242.806 20.7116 243.282 20.7933 243.729 20.9567C244.18 21.1165 244.578 21.3651 244.922 21.7024C245.271 22.0398 245.544 22.4695 245.743 22.9915C245.942 23.5099 246.041 24.1278 246.041 24.8452V25.4364H239.335V24.1367H244.193C244.189 23.7674 244.109 23.4389 243.953 23.1513C243.797 22.8601 243.578 22.631 243.298 22.4641C243.021 22.2972 242.698 22.2138 242.328 22.2138C241.934 22.2138 241.588 22.3097 241.29 22.5014C240.991 22.6896 240.759 22.9382 240.592 23.2472C240.429 23.5526 240.345 23.8881 240.342 24.2539V25.3885C240.342 25.8643 240.429 26.2727 240.603 26.6136C240.777 26.951 241.02 27.2102 241.332 27.3913C241.645 27.5689 242.011 27.6577 242.43 27.6577C242.71 27.6577 242.964 27.6186 243.191 27.5405C243.419 27.4588 243.616 27.3398 243.783 27.1836C243.949 27.0273 244.076 26.8338 244.161 26.603L245.961 26.8054C245.848 27.2812 245.631 27.6967 245.311 28.0518C244.995 28.4034 244.59 28.6768 244.097 28.8722C243.603 29.0639 243.039 29.1598 242.403 29.1598Z" fill="white"/>
</g>
<defs>
<filter id="filter0_d_4_126051" x="0" y="0" width="428" height="50" filterUnits="userSpaceOnUse" color-interpolation-filters="sRGB">
<feFlood flood-opacity="0" result="BackgroundImageFix"/>
<feColorMatrix in="SourceAlpha" type="matrix" values="0 0 0 0 0 0 0 0 0 0 0 0 0 0 0 0 0 0 127 0" result="hardAlpha"/>
<feOffset dy="1"/>
<feGaussianBlur stdDeviation="1"/>
<feComposite in2="hardAlpha" operator="out"/>
<feColorMatrix type="matrix" values="0 0 0 0 0.0627451 0 0 0 0 0.0941176 0 0 0 0 0.156863 0 0 0 0.04 0"/>
<feBlend mode="normal" in2="BackgroundImageFix" result="effect1_dropShadow_4_126051"/>
<feBlend mode="normal" in="SourceGraphic" in2="effect1_dropShadow_4_126051" result="shape"/>
</filter>
</defs>
</svg>
