<svg width="32" height="32" viewBox="0 0 32 32" fill="none" xmlns="http://www.w3.org/2000/svg">
<g id="Icon">
<path id="Icon_2" fill-rule="evenodd" clip-rule="evenodd" d="M17.3333 2.66634C17.3333 1.92996 16.7364 1.33301 16 1.33301C15.2636 1.33301 14.6667 1.92996 14.6667 2.66634V3.99967C10.9848 3.99967 8 6.98444 8 10.6663C8 14.3482 10.9848 17.333 14.6667 17.333V25.333C12.4575 25.333 10.6667 23.5421 10.6667 21.333C10.6667 20.5966 10.0697 19.9997 9.33333 19.9997C8.59695 19.9997 8 20.5966 8 21.333C8 25.0149 10.9848 27.9997 14.6667 27.9997L14.6667 29.333C14.6667 30.0694 15.2636 30.6663 16 30.6663C16.7364 30.6663 17.3333 30.0694 17.3333 29.333L17.3333 27.9997C21.0152 27.9997 24 25.0149 24 21.333C24 17.6511 21.0152 14.6663 17.3333 14.6663V6.66634C19.5425 6.66634 21.3333 8.4572 21.3333 10.6663C21.3333 11.4027 21.9303 11.9997 22.6667 11.9997C23.403 11.9997 24 11.4027 24 10.6663C24 6.98444 21.0152 3.99967 17.3333 3.99967V2.66634ZM21.3333 21.333C21.3333 23.5421 19.5425 25.333 17.3333 25.333V17.333C19.5425 17.333 21.3333 19.1239 21.3333 21.333ZM10.6667 10.6663C10.6667 8.4572 12.4575 6.66634 14.6667 6.66634V14.6663C12.4575 14.6663 10.6667 12.8755 10.6667 10.6663Z" fill="#437EF7"/>
</g>
</svg>
