<svg width="32" height="32" viewBox="0 0 32 32" fill="none" xmlns="http://www.w3.org/2000/svg">
<g id="Icon">
<g id="Icon_2">
<path d="M20.7977 13.5791C21.0357 13.817 21.2674 14.0487 21.4476 14.261C21.6455 14.4941 21.8583 14.79 21.9838 15.1763C22.1578 15.7119 22.1578 16.2888 21.9838 16.8244C21.8583 17.2107 21.6455 17.5065 21.4476 17.7396C21.2674 17.9519 21.0357 18.1836 20.7977 18.4215L18.2761 20.9431C17.7554 21.4638 16.9112 21.4638 16.3905 20.9431C15.8698 20.4224 15.8698 19.5782 16.3905 19.0575L18.1143 17.3337H5.33333C4.59695 17.3337 4 16.7367 4 16.0003C4 15.2639 4.59695 14.667 5.33333 14.667H18.1143L16.3905 12.9431C15.8698 12.4224 15.8698 11.5782 16.3905 11.0575C16.9112 10.5368 17.7554 10.5368 18.2761 11.0575L20.7977 13.5791Z" fill="#437EF7"/>
<path d="M10.6667 6.93366C10.6667 5.44019 10.6667 4.69345 10.9573 4.12302C11.213 3.62125 11.6209 3.2133 12.1227 2.95764C12.6931 2.66699 13.4399 2.66699 14.9333 2.66699H22.4C23.8935 2.66699 24.6402 2.66699 25.2106 2.95764C25.7124 3.2133 26.1204 3.62125 26.376 4.12302C26.6667 4.69345 26.6667 5.44019 26.6667 6.93366V25.067C26.6667 26.5605 26.6667 27.3072 26.376 27.8776C26.1204 28.3794 25.7124 28.7873 25.2106 29.043C24.6402 29.3337 23.8935 29.3337 22.4 29.3337H14.9333C13.4399 29.3337 12.6931 29.3337 12.1227 29.043C11.6209 28.7873 11.213 28.3794 10.9573 27.8776C10.6667 27.3072 10.6667 26.5605 10.6667 25.067V20.0003H13.3333C13.3333 21.024 13.7238 22.0477 14.5049 22.8288C16.067 24.3909 18.5996 24.3909 20.1617 22.8288L22.7149 20.2756C22.9289 20.0618 23.2282 19.7627 23.4805 19.4655C23.7863 19.1052 24.2426 18.5021 24.52 17.6484C24.868 16.5773 24.868 15.4234 24.52 14.3522C24.2426 13.4986 23.7863 12.8954 23.4805 12.5352C23.2281 12.2379 22.9289 11.9389 22.7149 11.725L20.1617 9.1719C18.5996 7.6098 16.067 7.6098 14.5049 9.1719C13.7238 9.95295 13.3333 10.9766 13.3333 12.0003H10.6667V6.93366Z" fill="#437EF7"/>
</g>
</g>
</svg>
