<svg width="48" height="48" viewBox="0 0 48 48" fill="none" xmlns="http://www.w3.org/2000/svg">
<rect width="48" height="48" rx="24" fill="#437EF7"/>
<path d="M25.3334 19.8317C27.6337 19.2396 29.3334 17.1515 29.3334 14.6663C29.3334 11.7208 26.9456 9.33301 24.0001 9.33301C21.0546 9.33301 18.6667 11.7208 18.6667 14.6663C18.6667 17.1515 20.3664 19.2396 22.6667 19.8317V22.6663H18.6667C16.4576 22.6663 14.6667 24.4572 14.6667 26.6663V28.1677C12.3664 28.7598 10.6667 30.8479 10.6667 33.333C10.6667 36.2785 13.0546 38.6663 16.0001 38.6663C18.9456 38.6663 21.3334 36.2785 21.3334 33.333C21.3334 30.8479 19.6337 28.7598 17.3334 28.1677V26.6663C17.3334 25.93 17.9304 25.333 18.6667 25.333H29.3334C30.0698 25.333 30.6667 25.93 30.6667 26.6663V28.1677C28.3664 28.7598 26.6667 30.8479 26.6667 33.333C26.6667 36.2785 29.0546 38.6663 32.0001 38.6663C34.9456 38.6663 37.3334 36.2785 37.3334 33.333C37.3334 30.8479 35.6337 28.7598 33.3334 28.1677V26.6663C33.3334 24.4572 31.5426 22.6663 29.3334 22.6663H25.3334V19.8317Z" fill="white"/>
</svg>
