<svg width="32" height="32" viewBox="0 0 32 32" fill="none" xmlns="http://www.w3.org/2000/svg">
<g id="Icon">
<g id="Icon_2">
<path d="M15.0397 4.23503C15.6442 3.92165 16.3558 3.92166 16.9604 4.23503L26.813 9.34209C28.3957 10.1625 28.3957 12.5041 26.813 13.3246L16.9604 18.4316C16.3558 18.745 15.6442 18.745 15.0397 18.4316L5.18714 13.3246C3.60435 12.5041 3.60435 10.1625 5.18714 9.34209L15.0397 4.23503Z" fill="#437EF7"/>
<path d="M5.9332 16.1425C5.27554 15.8113 4.47386 16.0759 4.14258 16.7335C3.81131 17.3912 4.0759 18.1929 4.73356 18.5241L15.1021 23.7469C15.6671 24.0315 16.333 24.0315 16.898 23.7469L27.2665 18.5241C27.9242 18.1929 28.1888 17.3912 27.8575 16.7335C27.5262 16.0759 26.7245 15.8113 26.0669 16.1425L16 21.2134L5.9332 16.1425Z" fill="#437EF7"/>
<path d="M5.9332 21.5155C5.27554 21.1842 4.47386 21.4488 4.14258 22.1065C3.81131 22.7641 4.0759 23.5658 4.73356 23.8971L15.1021 29.1199C15.6671 29.4045 16.333 29.4045 16.898 29.1199L27.2665 23.8971C27.9242 23.5658 28.1888 22.7641 27.8575 22.1065C27.5262 21.4488 26.7245 21.1842 26.0669 21.5155L16 26.5863L5.9332 21.5155Z" fill="#437EF7"/>
</g>
</g>
</svg>
