<svg width="84" height="50" viewBox="0 0 84 50" fill="none" xmlns="http://www.w3.org/2000/svg">
<g filter="url(#filter0_d_1951_97184)">
<rect x="2" y="1" width="80" height="46" rx="6" fill="#437EF7"/>
<path d="M21.076 29V18.0909H23.0522V27.3434H27.8569V29H21.076ZM33.0558 29.1598C32.2567 29.1598 31.5643 28.984 30.9783 28.6325C30.3924 28.2809 29.9379 27.7891 29.6147 27.157C29.2951 26.5249 29.1353 25.7862 29.1353 24.9411C29.1353 24.0959 29.2951 23.3555 29.6147 22.7198C29.9379 22.0842 30.3924 21.5906 30.9783 21.239C31.5643 20.8874 32.2567 20.7116 33.0558 20.7116C33.8548 20.7116 34.5472 20.8874 35.1332 21.239C35.7191 21.5906 36.1719 22.0842 36.4915 22.7198C36.8146 23.3555 36.9762 24.0959 36.9762 24.9411C36.9762 25.7862 36.8146 26.5249 36.4915 27.157C36.1719 27.7891 35.7191 28.2809 35.1332 28.6325C34.5472 28.984 33.8548 29.1598 33.0558 29.1598ZM33.0664 27.6151C33.4996 27.6151 33.8619 27.4961 34.1531 27.2582C34.4442 27.0167 34.6609 26.6935 34.8029 26.2887C34.9485 25.8839 35.0213 25.4329 35.0213 24.9357C35.0213 24.435 34.9485 23.9822 34.8029 23.5774C34.6609 23.169 34.4442 22.8441 34.1531 22.6026C33.8619 22.3612 33.4996 22.2404 33.0664 22.2404C32.6225 22.2404 32.2532 22.3612 31.9585 22.6026C31.6673 22.8441 31.4489 23.169 31.3033 23.5774C31.1612 23.9822 31.0902 24.435 31.0902 24.9357C31.0902 25.4329 31.1612 25.8839 31.3033 26.2887C31.4489 26.6935 31.6673 27.0167 31.9585 27.2582C32.2532 27.4961 32.6225 27.6151 33.0664 27.6151ZM42.1711 32.2386C41.4786 32.2386 40.8838 32.1445 40.3866 31.9563C39.8895 31.7717 39.49 31.5231 39.1881 31.2106C38.8863 30.8981 38.6768 30.5518 38.5596 30.1719L40.2961 29.7511C40.3742 29.9109 40.4878 30.0689 40.637 30.2251C40.7861 30.3849 40.9868 30.5163 41.2389 30.6193C41.4946 30.7259 41.816 30.7791 42.203 30.7791C42.7499 30.7791 43.2027 30.646 43.5613 30.3796C43.92 30.1168 44.0993 29.6836 44.0993 29.0799V27.5298H44.0035C43.904 27.7287 43.7584 27.9329 43.5667 28.1424C43.3785 28.3519 43.1281 28.5277 42.8156 28.6697C42.5067 28.8118 42.1178 28.8828 41.6491 28.8828C41.0205 28.8828 40.4506 28.7354 39.9392 28.4407C39.4314 28.1424 39.0265 27.6985 38.7247 27.109C38.4264 26.516 38.2773 25.7738 38.2773 24.8825C38.2773 23.984 38.4264 23.2259 38.7247 22.608C39.0265 21.9865 39.4331 21.516 39.9445 21.1964C40.4559 20.8732 41.0258 20.7116 41.6544 20.7116C42.1338 20.7116 42.528 20.7933 42.8369 20.9567C43.1494 21.1165 43.398 21.31 43.5827 21.5373C43.7673 21.761 43.9076 21.9723 44.0035 22.1712H44.11V20.8182H46.0116V29.1332C46.0116 29.8327 45.8447 30.4116 45.5109 30.8697C45.1771 31.3278 44.7208 31.6705 44.142 31.8977C43.5631 32.125 42.9062 32.2386 42.1711 32.2386ZM42.1871 27.37C42.5954 27.37 42.9434 27.2706 43.2311 27.0717C43.5187 26.8729 43.7371 26.587 43.8863 26.2141C44.0354 25.8413 44.11 25.3938 44.11 24.8718C44.11 24.3569 44.0354 23.9059 43.8863 23.5188C43.7407 23.1317 43.5241 22.8317 43.2364 22.6186C42.9523 22.402 42.6025 22.2937 42.1871 22.2937C41.7574 22.2937 41.3987 22.4055 41.1111 22.6293C40.8234 22.853 40.6068 23.1602 40.4612 23.5508C40.3156 23.9379 40.2428 24.3782 40.2428 24.8718C40.2428 25.3725 40.3156 25.8111 40.4612 26.1875C40.6104 26.5604 40.8287 26.8516 41.1164 27.0611C41.4076 27.267 41.7645 27.37 42.1871 27.37ZM53.77 18.0909V29H51.7938V18.0909H53.77ZM57.753 24.206V29H55.8248V20.8182H57.6678V22.2085H57.7637C57.9519 21.7504 58.252 21.3864 58.6639 21.1165C59.0794 20.8466 59.5925 20.7116 60.2033 20.7116C60.7679 20.7116 61.2598 20.8324 61.6788 21.0739C62.1014 21.3153 62.4281 21.6651 62.6589 22.1232C62.8933 22.5813 63.0087 23.1371 63.0051 23.7905V29H61.0769V24.0888C61.0769 23.5419 60.9348 23.114 60.6507 22.805C60.3702 22.4961 59.9814 22.3416 59.4842 22.3416C59.1468 22.3416 58.8468 22.4162 58.584 22.5653C58.3248 22.7109 58.1206 22.9222 57.9714 23.1992C57.8258 23.4762 57.753 23.8118 57.753 24.206Z" fill="white"/>
</g>
<defs>
<filter id="filter0_d_1951_97184" x="0" y="0" width="84" height="50" filterUnits="userSpaceOnUse" color-interpolation-filters="sRGB">
<feFlood flood-opacity="0" result="BackgroundImageFix"/>
<feColorMatrix in="SourceAlpha" type="matrix" values="0 0 0 0 0 0 0 0 0 0 0 0 0 0 0 0 0 0 127 0" result="hardAlpha"/>
<feOffset dy="1"/>
<feGaussianBlur stdDeviation="1"/>
<feComposite in2="hardAlpha" operator="out"/>
<feColorMatrix type="matrix" values="0 0 0 0 0.0627451 0 0 0 0 0.0941176 0 0 0 0 0.156863 0 0 0 0.04 0"/>
<feBlend mode="normal" in2="BackgroundImageFix" result="effect1_dropShadow_1951_97184"/>
<feBlend mode="normal" in="SourceGraphic" in2="effect1_dropShadow_1951_97184" result="shape"/>
</filter>
</defs>
</svg>
