<svg width="428" height="50" viewBox="0 0 428 50" fill="none" xmlns="http://www.w3.org/2000/svg">
<g filter="url(#filter0_d_1951_62742)">
<rect x="2" y="1" width="424" height="46" rx="6" fill="#437EF7"/>
<path d="M193.076 29V18.0909H195.052V27.3434H199.857V29H193.076ZM205.056 29.1598C204.257 29.1598 203.564 28.984 202.978 28.6325C202.392 28.2809 201.938 27.7891 201.615 27.157C201.295 26.5249 201.135 25.7862 201.135 24.9411C201.135 24.0959 201.295 23.3555 201.615 22.7198C201.938 22.0842 202.392 21.5906 202.978 21.239C203.564 20.8874 204.257 20.7116 205.056 20.7116C205.855 20.7116 206.547 20.8874 207.133 21.239C207.719 21.5906 208.172 22.0842 208.491 22.7198C208.815 23.3555 208.976 24.0959 208.976 24.9411C208.976 25.7862 208.815 26.5249 208.491 27.157C208.172 27.7891 207.719 28.2809 207.133 28.6325C206.547 28.984 205.855 29.1598 205.056 29.1598ZM205.066 27.6151C205.5 27.6151 205.862 27.4961 206.153 27.2582C206.444 27.0167 206.661 26.6935 206.803 26.2887C206.949 25.8839 207.021 25.4329 207.021 24.9357C207.021 24.435 206.949 23.9822 206.803 23.5774C206.661 23.169 206.444 22.8441 206.153 22.6026C205.862 22.3612 205.5 22.2404 205.066 22.2404C204.623 22.2404 204.253 22.3612 203.958 22.6026C203.667 22.8441 203.449 23.169 203.303 23.5774C203.161 23.9822 203.09 24.435 203.09 24.9357C203.09 25.4329 203.161 25.8839 203.303 26.2887C203.449 26.6935 203.667 27.0167 203.958 27.2582C204.253 27.4961 204.623 27.6151 205.066 27.6151ZM214.171 32.2386C213.479 32.2386 212.884 32.1445 212.387 31.9563C211.889 31.7717 211.49 31.5231 211.188 31.2106C210.886 30.8981 210.677 30.5518 210.56 30.1719L212.296 29.7511C212.374 29.9109 212.488 30.0689 212.637 30.2251C212.786 30.3849 212.987 30.5163 213.239 30.6193C213.495 30.7259 213.816 30.7791 214.203 30.7791C214.75 30.7791 215.203 30.646 215.561 30.3796C215.92 30.1168 216.099 29.6836 216.099 29.0799V27.5298H216.003C215.904 27.7287 215.758 27.9329 215.567 28.1424C215.378 28.3519 215.128 28.5277 214.816 28.6697C214.507 28.8118 214.118 28.8828 213.649 28.8828C213.021 28.8828 212.451 28.7354 211.939 28.4407C211.431 28.1424 211.027 27.6985 210.725 27.109C210.426 26.516 210.277 25.7738 210.277 24.8825C210.277 23.984 210.426 23.2259 210.725 22.608C211.027 21.9865 211.433 21.516 211.945 21.1964C212.456 20.8732 213.026 20.7116 213.654 20.7116C214.134 20.7116 214.528 20.7933 214.837 20.9567C215.149 21.1165 215.398 21.31 215.583 21.5373C215.767 21.761 215.908 21.9723 216.003 22.1712H216.11V20.8182H218.012V29.1332C218.012 29.8327 217.845 30.4116 217.511 30.8697C217.177 31.3278 216.721 31.6705 216.142 31.8977C215.563 32.125 214.906 32.2386 214.171 32.2386ZM214.187 27.37C214.595 27.37 214.943 27.2706 215.231 27.0717C215.519 26.8729 215.737 26.587 215.886 26.2141C216.035 25.8413 216.11 25.3938 216.11 24.8718C216.11 24.3569 216.035 23.9059 215.886 23.5188C215.741 23.1317 215.524 22.8317 215.236 22.6186C214.952 22.402 214.603 22.2937 214.187 22.2937C213.757 22.2937 213.399 22.4055 213.111 22.6293C212.823 22.853 212.607 23.1602 212.461 23.5508C212.316 23.9379 212.243 24.3782 212.243 24.8718C212.243 25.3725 212.316 25.8111 212.461 26.1875C212.61 26.5604 212.829 26.8516 213.116 27.0611C213.408 27.267 213.764 27.37 214.187 27.37ZM225.77 18.0909V29H223.794V18.0909H225.77ZM229.753 24.206V29H227.825V20.8182H229.668V22.2085H229.764C229.952 21.7504 230.252 21.3864 230.664 21.1165C231.079 20.8466 231.593 20.7116 232.203 20.7116C232.768 20.7116 233.26 20.8324 233.679 21.0739C234.101 21.3153 234.428 21.6651 234.659 22.1232C234.893 22.5813 235.009 23.1371 235.005 23.7905V29H233.077V24.0888C233.077 23.5419 232.935 23.114 232.651 22.805C232.37 22.4961 231.981 22.3416 231.484 22.3416C231.147 22.3416 230.847 22.4162 230.584 22.5653C230.325 22.7109 230.121 22.9222 229.971 23.1992C229.826 23.4762 229.753 23.8118 229.753 24.206Z" fill="white"/>
</g>
<defs>
<filter id="filter0_d_1951_62742" x="0" y="0" width="428" height="50" filterUnits="userSpaceOnUse" color-interpolation-filters="sRGB">
<feFlood flood-opacity="0" result="BackgroundImageFix"/>
<feColorMatrix in="SourceAlpha" type="matrix" values="0 0 0 0 0 0 0 0 0 0 0 0 0 0 0 0 0 0 127 0" result="hardAlpha"/>
<feOffset dy="1"/>
<feGaussianBlur stdDeviation="1"/>
<feComposite in2="hardAlpha" operator="out"/>
<feColorMatrix type="matrix" values="0 0 0 0 0.0627451 0 0 0 0 0.0941176 0 0 0 0 0.156863 0 0 0 0.04 0"/>
<feBlend mode="normal" in2="BackgroundImageFix" result="effect1_dropShadow_1951_62742"/>
<feBlend mode="normal" in="SourceGraphic" in2="effect1_dropShadow_1951_62742" result="shape"/>
</filter>
</defs>
</svg>
