<svg width="20" height="20" viewBox="0 0 20 20" fill="none" xmlns="http://www.w3.org/2000/svg">
<g id="mail">
<path id="Icon" d="M2.49996 4.16536L8.97673 9.20285C9.57858 9.67096 10.4213 9.67095 11.0232 9.20285L17.5 4.16536M4.33329 16.6654H15.6666C16.6 16.6654 17.0668 16.6654 17.4233 16.4837C17.7369 16.3239 17.9918 16.069 18.1516 15.7553C18.3333 15.3988 18.3333 14.9321 18.3333 13.9987V5.9987C18.3333 5.06528 18.3333 4.59857 18.1516 4.24205C17.9918 3.92844 17.7369 3.67348 17.4233 3.51369C17.0668 3.33203 16.6 3.33203 15.6666 3.33203H4.33329C3.39987 3.33203 2.93316 3.33203 2.57664 3.51369C2.26304 3.67348 2.00807 3.92844 1.84828 4.24205C1.66663 4.59857 1.66663 5.06528 1.66663 5.9987V13.9987C1.66663 14.9321 1.66663 15.3988 1.84828 15.7553C2.00807 16.069 2.26304 16.3239 2.57664 16.4837C2.93316 16.6654 3.39987 16.6654 4.33329 16.6654Z" stroke="#A5ACBA" stroke-width="1.5"/>
</g>
</svg>
