<svg width="428" height="50" viewBox="0 0 428 50" fill="none" xmlns="http://www.w3.org/2000/svg">
<g filter="url(#filter0_d_1231_62550)">
<rect x="2" y="1" width="424" height="46" rx="5" fill="#2C3444" shape-rendering="crispEdges"/>
<g clip-path="url(#clip0_1231_62550)">
<path d="M150.782 24.2547C150.782 23.5069 150.722 22.7552 150.592 22.0195H140.217V26.2554H146.158C145.912 27.6216 145.12 28.8301 143.96 29.5981V32.3466H147.504C149.586 30.4307 150.782 27.6014 150.782 24.2547Z" fill="white"/>
<path d="M140.218 35.0015C143.184 35.0015 145.686 34.0274 147.509 32.346L143.964 29.5975C142.978 30.2685 141.705 30.6484 140.222 30.6484C137.352 30.6484 134.919 28.7124 134.046 26.1094H130.388V28.9427C132.255 32.6572 136.058 35.0015 140.218 35.0015V35.0015Z" fill="white"/>
<path d="M134.041 26.1075C133.581 24.7414 133.581 23.262 134.041 21.8959V19.0625H130.387C128.827 22.1707 128.827 25.8327 130.387 28.9409L134.041 26.1075V26.1075Z" fill="white"/>
<path d="M140.218 17.3539C141.786 17.3296 143.302 17.9197 144.437 19.0029L147.578 15.8624C145.589 13.995 142.95 12.9684 140.218 13.0007C136.058 13.0007 132.255 15.345 130.388 19.0636L134.042 21.8969C134.911 19.2899 137.348 17.3539 140.218 17.3539V17.3539Z" fill="white"/>
</g>
<path d="M166.005 21.0898C165.955 20.6246 165.745 20.2624 165.376 20.0032C165.01 19.744 164.534 19.6143 163.949 19.6143C163.537 19.6143 163.183 19.6765 162.888 19.8008C162.594 19.9251 162.368 20.0937 162.212 20.3068C162.056 20.5199 161.976 20.7631 161.972 21.0366C161.972 21.2638 162.024 21.4609 162.127 21.6278C162.233 21.7947 162.377 21.9368 162.558 22.054C162.739 22.1676 162.94 22.2635 163.16 22.3416C163.38 22.4197 163.602 22.4854 163.826 22.5387L164.849 22.7944C165.261 22.8903 165.657 23.0199 166.037 23.1832C166.42 23.3466 166.763 23.5526 167.065 23.8011C167.37 24.0497 167.612 24.3498 167.789 24.7013C167.967 25.0529 168.055 25.4648 168.055 25.9371C168.055 26.5763 167.892 27.1392 167.565 27.6257C167.239 28.1087 166.766 28.4869 166.148 28.7603C165.534 29.0302 164.79 29.1651 163.917 29.1651C163.068 29.1651 162.331 29.0337 161.706 28.771C161.085 28.5082 160.598 28.1246 160.246 27.6204C159.898 27.1161 159.71 26.5018 159.682 25.7773H161.626C161.654 26.1573 161.772 26.4734 161.978 26.7255C162.184 26.9776 162.452 27.1658 162.782 27.2901C163.116 27.4144 163.489 27.4766 163.901 27.4766C164.33 27.4766 164.707 27.4126 165.03 27.2848C165.357 27.1534 165.612 26.9723 165.797 26.7415C165.982 26.5071 166.076 26.2337 166.079 25.9212C166.076 25.6371 165.992 25.4027 165.829 25.218C165.665 25.0298 165.436 24.8736 165.142 24.7493C164.85 24.6214 164.51 24.5078 164.119 24.4084L162.878 24.0888C161.979 23.858 161.269 23.5082 160.747 23.0394C160.229 22.5671 159.969 21.9403 159.969 21.1591C159.969 20.5163 160.143 19.9535 160.491 19.4705C160.843 18.9876 161.321 18.6129 161.924 18.3466C162.528 18.0767 163.212 17.9418 163.975 17.9418C164.749 17.9418 165.428 18.0767 166.01 18.3466C166.596 18.6129 167.056 18.984 167.39 19.4599C167.723 19.9322 167.896 20.4755 167.906 21.0898H166.005ZM169.732 29V20.8182H171.66V29H169.732ZM170.701 19.657C170.396 19.657 170.133 19.5558 169.913 19.3533C169.693 19.1474 169.583 18.9006 169.583 18.6129C169.583 18.3217 169.693 18.0749 169.913 17.8725C170.133 17.6665 170.396 17.5636 170.701 17.5636C171.01 17.5636 171.273 17.6665 171.49 17.8725C171.71 18.0749 171.82 18.3217 171.82 18.6129C171.82 18.9006 171.71 19.1474 171.49 19.3533C171.273 19.5558 171.01 19.657 170.701 19.657ZM177.201 32.2386C176.509 32.2386 175.914 32.1445 175.417 31.9563C174.92 31.7717 174.52 31.5231 174.218 31.2106C173.917 30.8981 173.707 30.5518 173.59 30.1719L175.326 29.7511C175.404 29.9109 175.518 30.0689 175.667 30.2251C175.816 30.3849 176.017 30.5163 176.269 30.6193C176.525 30.7259 176.846 30.7791 177.233 30.7791C177.78 30.7791 178.233 30.646 178.592 30.3796C178.95 30.1168 179.13 29.6836 179.13 29.0799V27.5298H179.034C178.934 27.7287 178.789 27.9329 178.597 28.1424C178.409 28.3519 178.158 28.5277 177.846 28.6697C177.537 28.8118 177.148 28.8828 176.679 28.8828C176.051 28.8828 175.481 28.7354 174.969 28.4407C174.462 28.1424 174.057 27.6985 173.755 27.109C173.457 26.516 173.308 25.7738 173.308 24.8825C173.308 23.984 173.457 23.2259 173.755 22.608C174.057 21.9865 174.463 21.516 174.975 21.1964C175.486 20.8732 176.056 20.7116 176.685 20.7116C177.164 20.7116 177.558 20.7933 177.867 20.9567C178.18 21.1165 178.428 21.31 178.613 21.5373C178.798 21.761 178.938 21.9723 179.034 22.1712H179.14V20.8182H181.042V29.1332C181.042 29.8327 180.875 30.4116 180.541 30.8697C180.207 31.3278 179.751 31.6705 179.172 31.8977C178.593 32.125 177.936 32.2386 177.201 32.2386ZM177.217 27.37C177.626 27.37 177.974 27.2706 178.261 27.0717C178.549 26.8729 178.767 26.587 178.917 26.2141C179.066 25.8413 179.14 25.3938 179.14 24.8718C179.14 24.3569 179.066 23.9059 178.917 23.5188C178.771 23.1317 178.554 22.8317 178.267 22.6186C177.983 22.402 177.633 22.2937 177.217 22.2937C176.788 22.2937 176.429 22.4055 176.141 22.6293C175.854 22.853 175.637 23.1602 175.491 23.5508C175.346 23.9379 175.273 24.3782 175.273 24.8718C175.273 25.3725 175.346 25.8111 175.491 26.1875C175.641 26.5604 175.859 26.8516 176.147 27.0611C176.438 27.267 176.795 27.37 177.217 27.37ZM184.946 24.206V29H183.018V20.8182H184.861V22.2085H184.957C185.145 21.7504 185.445 21.3864 185.857 21.1165C186.273 20.8466 186.786 20.7116 187.397 20.7116C187.961 20.7116 188.453 20.8324 188.872 21.0739C189.295 21.3153 189.621 21.6651 189.852 22.1232C190.087 22.5813 190.202 23.1371 190.199 23.7905V29H188.27V24.0888C188.27 23.5419 188.128 23.114 187.844 22.805C187.564 22.4961 187.175 22.3416 186.678 22.3416C186.34 22.3416 186.04 22.4162 185.777 22.5653C185.518 22.7109 185.314 22.9222 185.165 23.1992C185.019 23.4762 184.946 23.8118 184.946 24.206ZM195.879 29V20.8182H197.808V29H195.879ZM196.849 19.657C196.544 19.657 196.281 19.5558 196.061 19.3533C195.84 19.1474 195.73 18.9006 195.73 18.6129C195.73 18.3217 195.84 18.0749 196.061 17.8725C196.281 17.6665 196.544 17.5636 196.849 17.5636C197.158 17.5636 197.421 17.6665 197.637 17.8725C197.857 18.0749 197.968 18.3217 197.968 18.6129C197.968 18.9006 197.857 19.1474 197.637 19.3533C197.421 19.5558 197.158 19.657 196.849 19.657ZM201.719 24.206V29H199.791V20.8182H201.634V22.2085H201.729C201.918 21.7504 202.218 21.3864 202.63 21.1165C203.045 20.8466 203.558 20.7116 204.169 20.7116C204.734 20.7116 205.226 20.8324 205.645 21.0739C206.067 21.3153 206.394 21.6651 206.625 22.1232C206.859 22.5813 206.975 23.1371 206.971 23.7905V29H205.043V24.0888C205.043 23.5419 204.901 23.114 204.617 22.805C204.336 22.4961 203.947 22.3416 203.45 22.3416C203.113 22.3416 202.813 22.4162 202.55 22.5653C202.291 22.7109 202.086 22.9222 201.937 23.1992C201.792 23.4762 201.719 23.8118 201.719 24.206ZM214.34 29L212.029 20.8182H213.994L215.432 26.571H215.507L216.977 20.8182H218.921L220.392 26.5391H220.472L221.888 20.8182H223.859L221.542 29H219.534L218 23.4709H217.888L216.354 29H214.34ZM225.206 29V20.8182H227.134V29H225.206ZM226.175 19.657C225.87 19.657 225.607 19.5558 225.387 19.3533C225.167 19.1474 225.056 18.9006 225.056 18.6129C225.056 18.3217 225.167 18.0749 225.387 17.8725C225.607 17.6665 225.87 17.5636 226.175 17.5636C226.484 17.5636 226.747 17.6665 226.963 17.8725C227.184 18.0749 227.294 18.3217 227.294 18.6129C227.294 18.9006 227.184 19.1474 226.963 19.3533C226.747 19.5558 226.484 19.657 226.175 19.657ZM233.202 20.8182V22.3097H228.499V20.8182H233.202ZM229.66 18.858H231.588V26.5391C231.588 26.7983 231.627 26.9972 231.706 27.1357C231.787 27.2706 231.894 27.3629 232.025 27.4126C232.157 27.4624 232.302 27.4872 232.462 27.4872C232.583 27.4872 232.693 27.4783 232.792 27.4606C232.895 27.4428 232.973 27.4268 233.027 27.4126L233.351 28.9201C233.248 28.9556 233.101 28.9947 232.909 29.0373C232.721 29.0799 232.49 29.1048 232.217 29.1119C231.734 29.1261 231.299 29.0533 230.912 28.8935C230.525 28.7301 230.218 28.478 229.99 28.1371C229.767 27.7962 229.657 27.37 229.66 26.8587V18.858ZM236.919 24.206V29H234.991V18.0909H236.876V22.2085H236.972C237.164 21.7468 237.461 21.3828 237.862 21.1165C238.267 20.8466 238.782 20.7116 239.407 20.7116C239.975 20.7116 240.47 20.8306 240.893 21.0685C241.315 21.3065 241.642 21.6545 241.873 22.1126C242.107 22.5707 242.224 23.13 242.224 23.7905V29H240.296V24.0888C240.296 23.5384 240.154 23.1104 239.87 22.805C239.589 22.4961 239.195 22.3416 238.688 22.3416C238.347 22.3416 238.041 22.4162 237.771 22.5653C237.505 22.7109 237.295 22.9222 237.143 23.1992C236.994 23.4762 236.919 23.8118 236.919 24.206ZM255.304 21.5746C255.215 21.2869 255.093 21.0295 254.937 20.8022C254.784 20.5714 254.599 20.3743 254.383 20.2109C254.17 20.0476 253.925 19.9251 253.648 19.8434C253.371 19.7582 253.069 19.7156 252.742 19.7156C252.156 19.7156 251.634 19.8629 251.176 20.1577C250.718 20.4524 250.357 20.8857 250.095 21.4574C249.835 22.0256 249.706 22.718 249.706 23.5348C249.706 24.3587 249.835 25.0565 250.095 25.6282C250.354 26.1999 250.714 26.6349 251.176 26.9332C251.638 27.228 252.174 27.3754 252.785 27.3754C253.339 27.3754 253.818 27.2688 254.223 27.0558C254.631 26.8427 254.945 26.5408 255.166 26.1502C255.386 25.756 255.496 25.2944 255.496 24.7653L255.943 24.8345H252.982V23.2898H257.408V24.6001C257.408 25.5341 257.209 26.342 256.812 27.0238C256.414 27.7056 255.867 28.2312 255.171 28.6005C254.475 28.9663 253.676 29.1491 252.774 29.1491C251.769 29.1491 250.887 28.9237 250.127 28.4727C249.37 28.0181 248.779 27.3736 248.353 26.5391C247.93 25.701 247.719 24.7067 247.719 23.5561C247.719 22.6754 247.843 21.8888 248.092 21.1964C248.344 20.5039 248.695 19.9162 249.146 19.4332C249.597 18.9467 250.127 18.5774 250.734 18.3253C251.341 18.0696 252.002 17.9418 252.715 17.9418C253.319 17.9418 253.882 18.0305 254.404 18.2081C254.926 18.3821 255.389 18.6307 255.794 18.9538C256.203 19.277 256.538 19.6605 256.801 20.1044C257.064 20.5483 257.236 21.0384 257.318 21.5746H255.304ZM262.803 29.1598C262.004 29.1598 261.311 28.984 260.725 28.6325C260.139 28.2809 259.685 27.7891 259.362 27.157C259.042 26.5249 258.882 25.7862 258.882 24.9411C258.882 24.0959 259.042 23.3555 259.362 22.7198C259.685 22.0842 260.139 21.5906 260.725 21.239C261.311 20.8874 262.004 20.7116 262.803 20.7116C263.602 20.7116 264.294 20.8874 264.88 21.239C265.466 21.5906 265.919 22.0842 266.239 22.7198C266.562 23.3555 266.723 24.0959 266.723 24.9411C266.723 25.7862 266.562 26.5249 266.239 27.157C265.919 27.7891 265.466 28.2809 264.88 28.6325C264.294 28.984 263.602 29.1598 262.803 29.1598ZM262.813 27.6151C263.247 27.6151 263.609 27.4961 263.9 27.2582C264.191 27.0167 264.408 26.6935 264.55 26.2887C264.696 25.8839 264.768 25.4329 264.768 24.9357C264.768 24.435 264.696 23.9822 264.55 23.5774C264.408 23.169 264.191 22.8441 263.9 22.6026C263.609 22.3612 263.247 22.2404 262.813 22.2404C262.37 22.2404 262 22.3612 261.706 22.6026C261.414 22.8441 261.196 23.169 261.05 23.5774C260.908 23.9822 260.837 24.435 260.837 24.9357C260.837 25.4329 260.908 25.8839 261.05 26.2887C261.196 26.6935 261.414 27.0167 261.706 27.2582C262 27.4961 262.37 27.6151 262.813 27.6151ZM271.929 29.1598C271.13 29.1598 270.437 28.984 269.851 28.6325C269.265 28.2809 268.811 27.7891 268.488 27.157C268.168 26.5249 268.008 25.7862 268.008 24.9411C268.008 24.0959 268.168 23.3555 268.488 22.7198C268.811 22.0842 269.265 21.5906 269.851 21.239C270.437 20.8874 271.13 20.7116 271.929 20.7116C272.728 20.7116 273.42 20.8874 274.006 21.239C274.592 21.5906 275.045 22.0842 275.365 22.7198C275.688 23.3555 275.849 24.0959 275.849 24.9411C275.849 25.7862 275.688 26.5249 275.365 27.157C275.045 27.7891 274.592 28.2809 274.006 28.6325C273.42 28.984 272.728 29.1598 271.929 29.1598ZM271.939 27.6151C272.373 27.6151 272.735 27.4961 273.026 27.2582C273.317 27.0167 273.534 26.6935 273.676 26.2887C273.822 25.8839 273.894 25.4329 273.894 24.9357C273.894 24.435 273.822 23.9822 273.676 23.5774C273.534 23.169 273.317 22.8441 273.026 22.6026C272.735 22.3612 272.373 22.2404 271.939 22.2404C271.496 22.2404 271.126 22.3612 270.831 22.6026C270.54 22.8441 270.322 23.169 270.176 23.5774C270.034 23.9822 269.963 24.435 269.963 24.9357C269.963 25.4329 270.034 25.8839 270.176 26.2887C270.322 26.6935 270.54 27.0167 270.831 27.2582C271.126 27.4961 271.496 27.6151 271.939 27.6151ZM281.044 32.2386C280.352 32.2386 279.757 32.1445 279.26 31.9563C278.763 31.7717 278.363 31.5231 278.061 31.2106C277.759 30.8981 277.55 30.5518 277.433 30.1719L279.169 29.7511C279.247 29.9109 279.361 30.0689 279.51 30.2251C279.659 30.3849 279.86 30.5163 280.112 30.6193C280.368 30.7259 280.689 30.7791 281.076 30.7791C281.623 30.7791 282.076 30.646 282.434 30.3796C282.793 30.1168 282.972 29.6836 282.972 29.0799V27.5298H282.877C282.777 27.7287 282.631 27.9329 282.44 28.1424C282.252 28.3519 282.001 28.5277 281.689 28.6697C281.38 28.8118 280.991 28.8828 280.522 28.8828C279.894 28.8828 279.324 28.7354 278.812 28.4407C278.304 28.1424 277.9 27.6985 277.598 27.109C277.299 26.516 277.15 25.7738 277.15 24.8825C277.15 23.984 277.299 23.2259 277.598 22.608C277.9 21.9865 278.306 21.516 278.818 21.1964C279.329 20.8732 279.899 20.7116 280.527 20.7116C281.007 20.7116 281.401 20.7933 281.71 20.9567C282.022 21.1165 282.271 21.31 282.456 21.5373C282.64 21.761 282.781 21.9723 282.877 22.1712H282.983V20.8182H284.885V29.1332C284.885 29.8327 284.718 30.4116 284.384 30.8697C284.05 31.3278 283.594 31.6705 283.015 31.8977C282.436 32.125 281.779 32.2386 281.044 32.2386ZM281.06 27.37C281.468 27.37 281.816 27.2706 282.104 27.0717C282.392 26.8729 282.61 26.587 282.759 26.2141C282.908 25.8413 282.983 25.3938 282.983 24.8718C282.983 24.3569 282.908 23.9059 282.759 23.5188C282.614 23.1317 282.397 22.8317 282.109 22.6186C281.825 22.402 281.476 22.2937 281.06 22.2937C280.63 22.2937 280.272 22.4055 279.984 22.6293C279.696 22.853 279.48 23.1602 279.334 23.5508C279.189 23.9379 279.116 24.3782 279.116 24.8718C279.116 25.3725 279.189 25.8111 279.334 26.1875C279.483 26.5604 279.702 26.8516 279.989 27.0611C280.281 27.267 280.638 27.37 281.06 27.37ZM288.789 18.0909V29H286.861V18.0909H288.789ZM294.394 29.1598C293.574 29.1598 292.865 28.9893 292.269 28.6484C291.676 28.304 291.219 27.8175 290.9 27.1889C290.58 26.5568 290.42 25.8129 290.42 24.957C290.42 24.1154 290.58 23.3768 290.9 22.7411C291.223 22.1019 291.674 21.6048 292.253 21.2496C292.832 20.891 293.512 20.7116 294.293 20.7116C294.797 20.7116 295.273 20.7933 295.721 20.9567C296.172 21.1165 296.569 21.3651 296.914 21.7024C297.262 22.0398 297.535 22.4695 297.734 22.9915C297.933 23.5099 298.032 24.1278 298.032 24.8452V25.4364H291.326V24.1367H296.184C296.18 23.7674 296.1 23.4389 295.944 23.1513C295.788 22.8601 295.57 22.631 295.289 22.4641C295.012 22.2972 294.689 22.2138 294.32 22.2138C293.925 22.2138 293.579 22.3097 293.281 22.5014C292.983 22.6896 292.75 22.9382 292.583 23.2472C292.42 23.5526 292.336 23.8881 292.333 24.2539V25.3885C292.333 25.8643 292.42 26.2727 292.594 26.6136C292.768 26.951 293.011 27.2102 293.324 27.3913C293.636 27.5689 294.002 27.6577 294.421 27.6577C294.701 27.6577 294.955 27.6186 295.183 27.5405C295.41 27.4588 295.607 27.3398 295.774 27.1836C295.941 27.0273 296.067 26.8338 296.152 26.603L297.952 26.8054C297.839 27.2812 297.622 27.6967 297.303 28.0518C296.987 28.4034 296.582 28.6768 296.088 28.8722C295.594 29.0639 295.03 29.1598 294.394 29.1598Z" fill="#F9F9F9"/>
<rect x="2.5" y="1.5" width="423" height="45" rx="4.5" stroke="#2E3545" shape-rendering="crispEdges"/>
</g>
<defs>
<filter id="filter0_d_1231_62550" x="0" y="0" width="428" height="50" filterUnits="userSpaceOnUse" color-interpolation-filters="sRGB">
<feFlood flood-opacity="0" result="BackgroundImageFix"/>
<feColorMatrix in="SourceAlpha" type="matrix" values="0 0 0 0 0 0 0 0 0 0 0 0 0 0 0 0 0 0 127 0" result="hardAlpha"/>
<feOffset dy="1"/>
<feGaussianBlur stdDeviation="1"/>
<feComposite in2="hardAlpha" operator="out"/>
<feColorMatrix type="matrix" values="0 0 0 0 0.0627451 0 0 0 0 0.0941176 0 0 0 0 0.156863 0 0 0 0.04 0"/>
<feBlend mode="normal" in2="BackgroundImageFix" result="effect1_dropShadow_1231_62550"/>
<feBlend mode="normal" in="SourceGraphic" in2="effect1_dropShadow_1231_62550" result="shape"/>
</filter>
<clipPath id="clip0_1231_62550">
<rect width="22" height="22" fill="white" transform="translate(129 13)"/>
</clipPath>
</defs>
</svg>
