<svg width="32" height="32" viewBox="0 0 32 32" fill="none" xmlns="http://www.w3.org/2000/svg">
<g id="Icon">
<g id="Icon_2">
<path d="M9.33333 9.33301C9.33333 6.38749 11.7211 3.99967 14.6667 3.99967C17.6122 3.99967 20 6.38749 20 9.33301C20 10.0694 20.597 10.6663 21.3333 10.6663C22.0697 10.6663 22.6667 10.0694 22.6667 9.33301C22.6667 4.91473 19.0849 1.33301 14.6667 1.33301C10.2484 1.33301 6.66667 4.91473 6.66667 9.33301C6.66667 10.4683 6.90396 11.5517 7.33292 12.5335C7.62775 13.2083 8.41377 13.5163 9.08855 13.2215C9.76334 12.9267 10.0714 12.1406 9.77653 11.4658C9.4919 10.8144 9.33333 10.094 9.33333 9.33301Z" fill="#437EF7"/>
<path d="M26.57 19.3573L24.0476 30.6663L12.0032 30.6663L11.1758 28.1933C10.6038 26.4839 9.37372 25.0708 7.75604 24.2649L5.48919 23.1357C4.2904 22.5385 3.71479 21.1539 4.13862 19.8871C4.65691 18.338 6.43215 17.6054 7.89808 18.3357L12.0032 20.3806L12 9.33301C12 7.91285 13.2412 6.66634 14.6667 6.66634C16.0921 6.66634 17.3333 7.81761 17.3333 9.23777V13.333L23.3109 14.544C25.5813 14.921 27.0694 17.1187 26.57 19.3573Z" fill="#437EF7"/>
</g>
</g>
</svg>
