<svg width="324" height="50" viewBox="0 0 324 50" fill="none" xmlns="http://www.w3.org/2000/svg">
<g filter="url(#filter0_d_3_17288)">
<rect x="2" y="1" width="320" height="46" rx="6" fill="#437EF7"/>
<path d="M120.097 19.7475V18.0909H128.8V19.7475H125.429V29H123.468V19.7475H120.097ZM129.544 29V20.8182H131.413V22.1818H131.498C131.648 21.7095 131.903 21.3455 132.265 21.0898C132.631 20.8306 133.048 20.701 133.517 20.701C133.624 20.701 133.743 20.7063 133.874 20.717C134.009 20.7241 134.121 20.7365 134.21 20.7543V22.5281C134.128 22.4996 133.998 22.4748 133.821 22.4535C133.647 22.4286 133.478 22.4162 133.315 22.4162C132.963 22.4162 132.647 22.4925 132.367 22.6452C132.09 22.7944 131.871 23.0021 131.711 23.2685C131.552 23.5348 131.472 23.842 131.472 24.19V29H129.544ZM136.938 32.0682C136.676 32.0682 136.432 32.0469 136.209 32.0043C135.988 31.9652 135.813 31.919 135.681 31.8658L136.129 30.3636C136.409 30.4453 136.66 30.4844 136.88 30.4808C137.1 30.4773 137.293 30.408 137.46 30.2731C137.631 30.1417 137.775 29.9215 137.892 29.6126L138.057 29.1705L135.09 20.8182H137.135L139.021 26.9972H139.106L140.997 20.8182H143.048L139.772 29.9908C139.619 30.424 139.417 30.7951 139.165 31.104C138.913 31.4165 138.604 31.6545 138.238 31.8178C137.876 31.9847 137.443 32.0682 136.938 32.0682ZM150.031 24.206V29H148.103V20.8182H149.946V22.2085H150.042C150.23 21.7504 150.53 21.3864 150.942 21.1165C151.358 20.8466 151.871 20.7116 152.482 20.7116C153.046 20.7116 153.538 20.8324 153.957 21.0739C154.38 21.3153 154.706 21.6651 154.937 22.1232C155.172 22.5813 155.287 23.1371 155.283 23.7905V29H153.355V24.0888C153.355 23.5419 153.213 23.114 152.929 22.805C152.649 22.4961 152.26 22.3416 151.763 22.3416C151.425 22.3416 151.125 22.4162 150.862 22.5653C150.603 22.7109 150.399 22.9222 150.25 23.1992C150.104 23.4762 150.031 23.8118 150.031 24.206ZM160.813 29.1598C160.014 29.1598 159.321 28.984 158.735 28.6325C158.149 28.2809 157.695 27.7891 157.372 27.157C157.052 26.5249 156.892 25.7862 156.892 24.9411C156.892 24.0959 157.052 23.3555 157.372 22.7198C157.695 22.0842 158.149 21.5906 158.735 21.239C159.321 20.8874 160.014 20.7116 160.813 20.7116C161.612 20.7116 162.304 20.8874 162.89 21.239C163.476 21.5906 163.929 22.0842 164.248 22.7198C164.571 23.3555 164.733 24.0959 164.733 24.9411C164.733 25.7862 164.571 26.5249 164.248 27.157C163.929 27.7891 163.476 28.2809 162.89 28.6325C162.304 28.984 161.612 29.1598 160.813 29.1598ZM160.823 27.6151C161.256 27.6151 161.619 27.4961 161.91 27.2582C162.201 27.0167 162.418 26.6935 162.56 26.2887C162.705 25.8839 162.778 25.4329 162.778 24.9357C162.778 24.435 162.705 23.9822 162.56 23.5774C162.418 23.169 162.201 22.8441 161.91 22.6026C161.619 22.3612 161.256 22.2404 160.823 22.2404C160.379 22.2404 160.01 22.3612 159.715 22.6026C159.424 22.8441 159.206 23.169 159.06 23.5774C158.918 23.9822 158.847 24.435 158.847 24.9357C158.847 25.4329 158.918 25.8839 159.06 26.2887C159.206 26.6935 159.424 27.0167 159.715 27.2582C160.01 27.4961 160.379 27.6151 160.823 27.6151ZM167.824 29L165.512 20.8182H167.478L168.916 26.571H168.99L170.461 20.8182H172.405L173.875 26.5391H173.955L175.372 20.8182H177.343L175.026 29H173.017L171.483 23.4709H171.371L169.837 29H167.824Z" fill="white"/>
<path d="M188.667 24H199.5M195.333 19L199.744 23.4107C200.07 23.7362 200.07 24.2638 199.744 24.5893L195.333 29" stroke="white" stroke-width="2" stroke-linecap="round"/>
</g>
<defs>
<filter id="filter0_d_3_17288" x="0" y="0" width="324" height="50" filterUnits="userSpaceOnUse" color-interpolation-filters="sRGB">
<feFlood flood-opacity="0" result="BackgroundImageFix"/>
<feColorMatrix in="SourceAlpha" type="matrix" values="0 0 0 0 0 0 0 0 0 0 0 0 0 0 0 0 0 0 127 0" result="hardAlpha"/>
<feOffset dy="1"/>
<feGaussianBlur stdDeviation="1"/>
<feComposite in2="hardAlpha" operator="out"/>
<feColorMatrix type="matrix" values="0 0 0 0 0.0627451 0 0 0 0 0.0941176 0 0 0 0 0.156863 0 0 0 0.04 0"/>
<feBlend mode="normal" in2="BackgroundImageFix" result="effect1_dropShadow_3_17288"/>
<feBlend mode="normal" in="SourceGraphic" in2="effect1_dropShadow_3_17288" result="shape"/>
</filter>
</defs>
</svg>
